<?xml version="1.0" encoding="UTF-8"?>
<svg xmlns="http://www.w3.org/2000/svg" xmlns:xlink="http://www.w3.org/1999/xlink" width="481.92pt" height="170.16pt" viewBox="0 0 481.92 170.16">
<path fill-rule="evenodd" fill="rgb(100%, 100%, 100%)" fill-opacity="1" d="M 0 170.160156 L 481.921875 170.160156 L 481.921875 0 L 0 0 Z M 0 170.160156 "/>
<path fill-rule="evenodd" fill="rgb(100%, 79.998779%, 0%)" fill-opacity="1" d="M 252.238281 80.65625 L 256.761719 86.039062 L 261.558594 80.539062 L 263.160156 52.199219 C 263 48.898438 254.421875 38.761719 254.421875 38.761719 Z M 252.238281 80.65625 "/>
<path fill-rule="evenodd" fill="rgb(0%, 39.99939%, 100%)" fill-opacity="1" d="M 67.679688 80.519531 C 68.035156 80.046875 68.390625 79.652344 68.742188 79.339844 C 69.140625 79.023438 69.53125 78.746094 69.925781 78.589844 C 70.320312 78.394531 70.753906 78.273438 71.1875 78.234375 C 71.582031 78.15625 72.015625 78.15625 72.449219 78.195312 C 72.84375 78.234375 73.277344 78.351562 73.671875 78.472656 C 74.066406 78.589844 74.460938 78.746094 74.816406 78.945312 C 75.5625 79.378906 76.195312 79.890625 76.707031 80.480469 L 78.601562 50.460938 L 70.085938 39 Z M 67.679688 80.519531 "/>
<path fill-rule="evenodd" fill="rgb(0%, 66.699219%, 0%)" fill-opacity="1" d="M 24.183594 80.46875 L 23.761719 98.480469 L 32.207031 106.679688 L 32.398438 80.429688 C 32.132812 79.996094 31.824219 79.605469 31.515625 79.25 C 31.171875 78.898438 30.824219 78.621094 30.441406 78.425781 C 30.058594 78.191406 29.675781 78.035156 29.25 77.917969 C 28.867188 77.800781 28.445312 77.761719 28.023438 77.761719 C 27.636719 77.761719 27.214844 77.800781 26.871094 77.917969 C 26.484375 78.035156 26.101562 78.191406 25.796875 78.425781 C 25.449219 78.664062 25.179688 78.9375 24.910156 79.289062 C 24.683594 79.644531 24.449219 80.035156 24.296875 80.46875 Z M 24.183594 80.46875 "/>
<path fill-rule="evenodd" fill="rgb(0%, 66.699219%, 0%)" fill-opacity="1" d="M 116.359375 80.554688 L 116.28125 88.8125 L 123.96875 99.601562 L 124.320312 80.632812 C 124.078125 80.359375 123.851562 80.125 123.570312 79.929688 C 123.300781 79.695312 122.988281 79.503906 122.628906 79.347656 C 121.96875 79.074219 121.21875 78.878906 120.480469 78.839844 C 120.078125 78.839844 119.691406 78.839844 119.300781 78.917969 C 118.949219 78.957031 118.550781 79.074219 118.199219 79.230469 C 117.851562 79.347656 117.539062 79.503906 117.21875 79.734375 C 116.910156 79.96875 116.628906 80.242188 116.359375 80.554688 Z M 116.359375 80.554688 "/>
<path fill-rule="evenodd" fill="rgb(0%, 33.299255%, 83.099365%)" fill-opacity="1" d="M 209.160156 80.445312 L 209.238281 90.132812 L 216.519531 98.28125 L 216.71875 80.484375 C 216.359375 80.011719 215.839844 79.539062 215.25 79.1875 C 214.691406 78.792969 214.011719 78.558594 213.300781 78.4375 C 212.941406 78.398438 212.578125 78.359375 212.21875 78.398438 C 211.871094 78.4375 211.511719 78.558594 211.148438 78.714844 C 210.789062 78.871094 210.46875 79.070312 210.148438 79.34375 C 209.800781 79.660156 209.480469 80.011719 209.160156 80.445312 Z M 209.160156 80.445312 "/>
<path fill-rule="evenodd" fill="rgb(0%, 39.99939%, 100%)" fill-opacity="1" d="M 318 80.4375 L 318.351562 100.539062 L 318.78125 122.957031 L 327.71875 134.519531 L 326.089844 80.398438 C 325.78125 80.792969 325.460938 81.148438 325.148438 81.460938 C 324.839844 81.777344 324.53125 82.050781 324.179688 82.25 C 323.828125 82.445312 323.519531 82.640625 323.171875 82.761719 C 322.78125 82.839844 322.429688 82.917969 322.078125 82.917969 C 321.730469 82.917969 321.378906 82.917969 320.988281 82.800781 C 320.640625 82.722656 320.289062 82.5625 319.941406 82.367188 C 319.589844 82.171875 319.28125 81.894531 318.929688 81.578125 C 318.621094 81.265625 318.308594 80.871094 318 80.4375 Z M 318 80.4375 "/>
<path fill-rule="evenodd" fill="rgb(21.598816%, 44.299316%, 78.399658%)" fill-opacity="1" d="M 273.078125 80.160156 L 270.839844 93.425781 C 270.839844 93.425781 273.238281 96.480469 275.480469 96.480469 C 277.75 96.480469 279.328125 94.601562 279.328125 94.601562 L 279.601562 84.933594 L 278.03125 81.6875 C 278.070312 81.765625 277.828125 81.882812 277.480469 81.921875 C 277.089844 82 276.578125 82.039062 275.988281 81.960938 C 275.441406 81.921875 274.808594 81.765625 274.300781 81.492188 C 274.019531 81.335938 273.789062 81.179688 273.589844 80.941406 C 273.390625 80.746094 273.199219 80.472656 273.078125 80.160156 Z M 273.078125 80.160156 "/>
<path fill-rule="evenodd" fill="rgb(0%, 50.19989%, 0%)" fill-opacity="1" d="M 273.121094 80.1875 C 273.238281 80.503906 273.429688 80.777344 273.621094 80.976562 C 273.820312 81.210938 274.050781 81.371094 274.320312 81.527344 C 274.820312 81.804688 275.441406 81.960938 275.988281 82 C 276.570312 82.078125 277.070312 82.039062 277.460938 81.960938 C 277.808594 81.921875 278.039062 81.804688 278 81.726562 L 274.171875 73.679688 Z M 273.121094 80.1875 "/>
<path fill-rule="evenodd" fill="rgb(0%, 66.699219%, 0%)" fill-opacity="1" d="M 406.558594 80.484375 C 406.921875 82.410156 407.941406 87.5625 407.941406 87.5625 L 419.039062 106.320312 L 414.179688 80.484375 C 413.671875 79.972656 413.160156 79.5 412.601562 79.144531 C 412.050781 78.753906 411.460938 78.476562 410.859375 78.398438 C 410.550781 78.359375 410.191406 78.359375 409.878906 78.398438 C 409.519531 78.4375 409.210938 78.558594 408.851562 78.714844 C 408.5 78.871094 408.101562 79.105469 407.738281 79.382812 C 407.351562 79.695312 406.949219 80.050781 406.558594 80.484375 Z M 406.558594 80.484375 "/>
<path fill-rule="evenodd" fill="rgb(100%, 79.998779%, 0%)" fill-opacity="1" d="M 138.160156 80.238281 C 137.730469 95.03125 137.269531 109.820312 136.921875 124.613281 C 136.921875 127.519531 145.570312 137.761719 145.570312 137.761719 L 146.039062 80.433594 L 141.929688 75.960938 Z M 138.160156 80.238281 "/>
<path fill-rule="evenodd" fill="rgb(21.598816%, 28.199768%, 27.099609%)" fill-opacity="1" d="M 464 42.570312 C 464 42.570312 445.929688 18.910156 428.089844 30.351562 C 410.300781 41.78125 400.46875 48.691406 376.789062 93.09375 L 353.140625 137.488281 C 353.140625 137.488281 349.398438 147.859375 340.371094 148.097656 C 331.328125 148.371094 328.421875 147.585938 324.179688 148.097656 C 319.898438 148.648438 314.320312 147.3125 308.230469 140.394531 C 302.101562 133.480469 280.300781 89.085938 280.300781 89.085938 C 280.300781 89.085938 259.050781 35.648438 241.480469 27.160156 C 241.480469 27.160156 240.339844 26.421875 238.5 26.421875 C 236.488281 26.421875 233.628906 27.238281 230.601562 30.859375 C 224.75 37.769531 186.441406 102.640625 186.441406 102.640625 L 168.648438 134.03125 C 168.648438 134.03125 163.339844 147.859375 152.96875 148.371094 C 152.96875 148.371094 151.28125 148.292969 149.398438 147.742188 C 147.511719 147.191406 140.949219 147.191406 139.070312 147.742188 C 137.179688 148.292969 132.269531 149.039062 129.28125 146.25 C 126.261719 143.421875 117.621094 134.1875 113.488281 125.742188 C 109.371094 117.292969 77.269531 49.988281 77.269531 49.988281 C 77.269531 49.988281 60.925781 29.558594 56.015625 27.089844 C 56.015625 27.089844 47.527344 29.480469 43.167969 35.140625 C 38.847656 40.761719 25.527344 68.421875 25.527344 68.421875 C 25.527344 68.421875 23.445312 72.542969 21.207031 70.109375 L 11.03125 55.449219 C 11.03125 55.449219 8.398438 52.621094 10.875 48.109375 C 13.3125 43.589844 31.304688 16.910156 43.71875 16.910156 C 51.773438 16.910156 53.933594 18.71875 53.933594 18.71875 C 53.933594 18.71875 61.042969 16.710938 65.914062 16.710938 C 70.824219 16.710938 80.019531 22.171875 84.929688 27.601562 C 87.5625 30.539062 93.335938 39.269531 98.953125 48.578125 C 103.75 56.550781 108.421875 64.921875 110.859375 70.460938 C 116.160156 82.484375 138.910156 126.171875 142.640625 134.03125 C 142.640625 134.03125 151.480469 128.925781 161.621094 109.003906 C 171.75 89.085938 180.390625 73.839844 180.390625 73.839844 C 180.390625 73.839844 207.109375 17.460938 222.898438 17.261719 C 237.28125 17.070312 238.109375 17.660156 238.109375 17.660156 C 238.109375 17.660156 247.53125 16.320312 250.171875 16.320312 C 252.800781 16.320312 265.019531 20.480469 276.289062 35.488281 C 287.570312 50.539062 308.980469 98.472656 308.980469 98.472656 C 308.980469 98.472656 325.910156 132.144531 330.429688 136.664062 C 330.429688 136.664062 338.480469 132.5 359.929688 86.648438 C 381.339844 40.761719 402.050781 26.691406 412.730469 23.121094 C 423.460938 19.539062 435.679688 19.898438 435.679688 19.898438 C 435.679688 19.898438 462.390625 18.601562 473.660156 27.050781 C 473.660156 27.050781 477.238281 29.839844 474.210938 32.308594 C 472.25 33.921875 464.078125 39.269531 464 42.570312 Z M 464 42.570312 "/>
<path fill-rule="evenodd" fill="rgb(0%, 66.699219%, 0%)" fill-opacity="1" d="M 180.839844 80.453125 C 181.070312 80.882812 181.308594 81.277344 181.539062 81.589844 C 181.808594 81.902344 182.050781 82.140625 182.320312 82.335938 C 182.828125 82.769531 183.371094 82.964844 183.921875 83.082031 C 184.46875 83.160156 185.011719 83.121094 185.519531 83.082031 C 186.070312 83.003906 186.570312 82.886719 187.078125 82.808594 L 182.238281 72.839844 Z M 180.839844 80.453125 "/>
<path fill-rule="evenodd" fill="rgb(0%, 66.699219%, 0%)" fill-opacity="1" d="M 298.921875 80.144531 L 306.121094 93.839844 L 304.101562 80.578125 C 303.589844 80.34375 303.148438 79.871094 302.398438 79.636719 C 302.050781 79.519531 301.609375 79.441406 301.019531 79.519531 C 300.460938 79.597656 299.75 79.792969 298.921875 80.144531 Z M 298.921875 80.144531 "/>
<path fill-rule="evenodd" fill="rgb(0%, 39.99939%, 100%)" fill-opacity="1" d="M 376.761719 80.039062 C 376.960938 79.804688 377.148438 79.53125 377.429688 79.335938 C 377.859375 79.0625 378.328125 78.867188 378.839844 78.75 C 379.359375 78.632812 379.949219 78.59375 380.578125 78.59375 C 381.171875 78.59375 381.839844 78.632812 382.5 78.710938 C 382.980469 78.789062 383.488281 78.90625 384 79.023438 L 379.078125 70.578125 L 374.828125 67.921875 L 371.761719 76.246094 Z M 376.761719 80.039062 "/>
<path fill-rule="evenodd" fill="rgb(0%, 66.699219%, 0%)" fill-opacity="1" d="M 376.679688 80.066406 L 390.71875 90.839844 L 383.921875 79.035156 C 383.410156 78.917969 382.890625 78.796875 382.421875 78.71875 C 381.75 78.640625 381.078125 78.601562 380.488281 78.601562 C 379.871094 78.601562 379.28125 78.640625 378.761719 78.757812 C 378.25 78.878906 377.78125 79.074219 377.351562 79.351562 C 377.070312 79.550781 376.878906 79.828125 376.679688 80.066406 Z M 376.679688 80.066406 "/>
<path fill-rule="evenodd" fill="rgb(0%, 39.99939%, 100%)" fill-opacity="1" d="M 406.621094 80.519531 C 407.019531 80.089844 407.410156 79.734375 407.808594 79.421875 C 408.160156 79.144531 408.558594 78.910156 408.910156 78.75 C 409.269531 78.59375 409.578125 78.476562 409.941406 78.4375 C 410.25 78.398438 410.609375 78.398438 410.921875 78.4375 C 411.519531 78.515625 412.109375 78.789062 412.660156 79.183594 C 413.210938 79.535156 413.730469 80.007812 414.238281 80.519531 L 406.820312 41.179688 C 406.820312 41.179688 404.960938 37.800781 402.679688 38.941406 C 400.269531 40.121094 399.359375 42.519531 399.359375 43.460938 C 399.359375 44.25 404.609375 70.65625 406.621094 80.519531 Z M 406.621094 80.519531 "/>
<path fill-rule="evenodd" fill="rgb(0%, 39.99939%, 100%)" fill-opacity="1" d="M 180.71875 80.398438 L 178.441406 92.757812 C 178.441406 92.757812 179.351562 95.828125 181.859375 96.613281 C 184.421875 97.441406 186.390625 95.277344 186.390625 95.277344 L 188.28125 85.28125 L 187.019531 82.761719 C 186.511719 82.839844 186 82.957031 185.449219 83.035156 C 184.929688 83.074219 184.378906 83.113281 183.828125 83.035156 C 183.28125 82.917969 182.730469 82.722656 182.21875 82.289062 C 181.941406 82.09375 181.710938 81.855469 181.429688 81.539062 C 181.199219 81.226562 180.960938 80.832031 180.71875 80.398438 Z M 180.71875 80.398438 "/>
<path fill-rule="evenodd" fill="rgb(21.598816%, 28.199768%, 27.099609%)" fill-opacity="1" d="M 444.949219 127.945312 C 444.949219 127.945312 453 129.984375 450.558594 137.523438 C 448.128906 145.023438 442.671875 150.285156 440.230469 150.285156 C 437.789062 150.285156 434.96875 148.007812 430.839844 148.203125 C 426.679688 148.398438 423.890625 150.480469 421.609375 150.480469 C 419.371094 150.480469 415.988281 149.144531 413.160156 143.882812 C 410.328125 138.621094 386.289062 80.007812 369 55.980469 C 351.671875 31.910156 338.039062 26.21875 338.039062 26.21875 C 338.039062 26.21875 318.589844 32.5 302.050781 62.378906 C 285.511719 92.21875 265.589844 127.003906 263.308594 129.632812 C 261.070312 132.261719 253.371094 147.457031 246.421875 147.261719 C 239.460938 147.105469 237.378906 146.160156 233.449219 147.261719 C 229.480469 148.398438 224.609375 148.398438 218.011719 142.390625 C 211.449219 136.386719 203 123.429688 187.210938 86.054688 C 171.410156 48.640625 157.5 31.359375 147.519531 26.5 C 147.519531 26.5 139.269531 27.039062 132.121094 39.800781 C 124.96875 52.601562 91.144531 109.6875 91.144531 109.6875 L 76.449219 133.164062 C 76.449219 133.164062 71.183594 148.792969 61.992188 148.949219 C 52.796875 149.144531 54.09375 147.105469 49.96875 147.652344 C 45.804688 148.203125 37.355469 148.792969 33.035156 145.21875 C 28.714844 141.644531 18.183594 129.984375 10.480469 109.140625 C 10.480469 109.140625 8.398438 105.214844 10.679688 103.328125 C 13.664062 100.855469 23.25 96.535156 23.25 96.535156 C 23.25 96.535156 27.414062 95.238281 29.261719 99.363281 C 31.148438 103.484375 46.394531 133.164062 49.222656 135.992188 C 49.222656 135.992188 65.015625 120.210938 72.324219 105.015625 C 79.671875 89.78125 102.691406 50.519531 102.691406 50.519531 C 102.691406 50.519531 117.269531 10.320312 144.699219 17.859375 C 144.699219 17.859375 153.929688 16.328125 159.550781 16.519531 C 165.199219 16.71875 177.621094 26.101562 187.210938 40.199219 C 196.789062 54.289062 210.898438 84.71875 210.898438 84.71875 C 210.898438 84.71875 233.058594 131.320312 234.390625 132.421875 C 234.390625 132.421875 244.921875 129.4375 259.578125 99.007812 C 274.230469 68.578125 290.96875 39.058594 301.699219 29.871094 C 312.378906 20.648438 318.390625 16.171875 333.828125 18.960938 C 333.828125 18.960938 342.480469 19.148438 347.550781 18.800781 C 352.621094 18.410156 364.089844 20.488281 370.851562 26.851562 C 377.640625 33.25 392.300781 51.269531 396.96875 59.75 C 401.691406 68.191406 423.691406 114.597656 423.691406 114.597656 L 427.300781 125.589844 Z M 444.949219 127.945312 "/>
<path fill-rule="evenodd" fill="rgb(0%, 39.99939%, 100%)" fill-opacity="1" d="M 298.949219 80.089844 C 299.78125 79.734375 300.480469 79.539062 301.03125 79.460938 C 301.609375 79.382812 302.050781 79.460938 302.398438 79.578125 C 303.140625 79.8125 303.570312 80.285156 304.078125 80.519531 L 300.089844 53.96875 C 300.089844 53.96875 298.761719 50.640625 295.980469 50.910156 C 293.199219 51.191406 291.480469 53.859375 291.480469 53.859375 L 293.480469 69.621094 Z M 298.949219 80.089844 "/>
<path fill-rule="evenodd" fill="rgb(21.598816%, 28.199768%, 27.099609%)" fill-opacity="1" d="M 276.28125 35.398438 C 287.570312 50.460938 309 98.417969 309 98.417969 L 288.46875 105.925781 M 288.980469 106.320312 C 284.109375 96.765625 280.289062 89.023438 280.289062 89.023438 C 280.289062 89.023438 275.808594 77.777344 269.28125 64.769531 L 276.078125 35.828125 "/>
<path fill-rule="evenodd" fill="rgb(21.598816%, 28.199768%, 27.099609%)" fill-opacity="1" d="M 84.597656 65.339844 C 89.328125 75.226562 95.597656 88.34375 101.109375 99.882812 M 84.480469 65.261719 L 98.984375 48.480469 C 103.789062 56.480469 108.488281 64.871094 110.929688 70.421875 C 111.71875 72.191406 112.859375 74.632812 114.238281 77.824219 L 100.761719 100.078125 "/>
<path fill-rule="evenodd" fill="rgb(0%, 66.699219%, 0%)" fill-opacity="1" d="M 67.613281 80.472656 L 64.921875 127.242188 C 64.921875 127.242188 67.058594 129.359375 69.195312 129.359375 C 71.335938 129.359375 73.75 126.183594 73.75 126.183594 L 76.679688 80.433594 C 76.164062 79.84375 75.53125 79.335938 74.777344 78.902344 C 74.421875 78.707031 74.027344 78.550781 73.632812 78.433594 C 73.234375 78.316406 72.800781 78.199219 72.402344 78.160156 C 71.96875 78.121094 71.53125 78.121094 71.136719 78.199219 C 70.699219 78.238281 70.265625 78.355469 69.867188 78.550781 C 69.472656 78.707031 69.078125 78.980469 68.683594 79.296875 C 68.324219 79.609375 67.96875 80.003906 67.613281 80.472656 Z M 67.613281 80.472656 "/>
<path fill-rule="evenodd" fill="rgb(0%, 66.699219%, 0%)" fill-opacity="1" d="M 317.859375 80.449219 C 318.179688 80.882812 318.488281 81.273438 318.808594 81.585938 C 319.160156 81.902344 319.480469 82.175781 319.828125 82.371094 C 320.179688 82.566406 320.539062 82.722656 320.890625 82.800781 C 321.28125 82.921875 321.640625 82.921875 321.988281 82.921875 C 322.339844 82.921875 322.699219 82.84375 323.089844 82.761719 C 323.449219 82.644531 323.761719 82.449219 324.109375 82.253906 C 324.46875 82.058594 324.78125 81.78125 325.101562 81.46875 C 325.410156 81.15625 325.730469 80.804688 326.039062 80.410156 L 324.351562 27.050781 C 324.351562 27.050781 322.339844 25.441406 320.621094 25.710938 C 319.75 25.871094 318.851562 26.421875 318.140625 26.929688 C 317.429688 27.480469 316.921875 27.988281 316.921875 27.988281 Z M 317.859375 80.449219 "/>
<path fill-rule="evenodd" fill="rgb(21.598816%, 28.199768%, 27.099609%)" fill-opacity="1" d="M 276.28125 35.398438 C 287.570312 50.460938 309 98.417969 309 98.417969 M 288.980469 106.320312 C 284.109375 96.765625 280.289062 89.023438 280.289062 89.023438 C 280.289062 89.023438 275.808594 77.777344 269.28125 64.769531 "/>
<path fill-rule="evenodd" fill="rgb(0%, 39.99939%, 100%)" fill-opacity="1" d="M 116.28125 80.441406 C 116.558594 80.128906 116.828125 79.851562 117.148438 79.617188 C 117.46875 79.382812 117.789062 79.222656 118.140625 79.105469 C 118.5 78.949219 118.898438 78.832031 119.25 78.792969 C 119.648438 78.714844 120.050781 78.714844 120.441406 78.714844 C 121.199219 78.753906 121.949219 78.949219 122.621094 79.222656 C 122.980469 79.382812 123.300781 79.578125 123.570312 79.8125 C 123.851562 80.007812 124.089844 80.246094 124.328125 80.519531 L 125.039062 37.199219 C 125.039062 37.199219 123.449219 34.800781 121.550781 34.800781 C 119.691406 34.800781 116.761719 36.371094 116.761719 36.371094 Z M 116.28125 80.441406 "/>
<path fill-rule="evenodd" fill="rgb(0%, 39.99939%, 100%)" fill-opacity="1" d="M 24.121094 80.519531 L 24.238281 80.519531 C 24.394531 80.085938 24.632812 79.691406 24.871094 79.339844 C 25.144531 78.984375 25.421875 78.710938 25.777344 78.472656 C 26.09375 78.234375 26.488281 78.078125 26.882812 77.960938 C 27.238281 77.84375 27.671875 77.804688 28.066406 77.804688 C 28.5 77.804688 28.933594 77.84375 29.328125 77.960938 C 29.761719 78.078125 30.15625 78.234375 30.550781 78.472656 C 30.945312 78.667969 31.300781 78.945312 31.65625 79.300781 C 31.972656 79.652344 32.289062 80.046875 32.5625 80.480469 L 32.878906 37.398438 C 32.878906 37.398438 31.695312 35.160156 29.40625 35.160156 C 27.15625 35.160156 25.144531 36.769531 25.144531 36.769531 Z M 24.121094 80.519531 "/>
<path fill-rule="evenodd" fill="rgb(0%, 66.699219%, 0%)" fill-opacity="1" d="M 209.238281 80.480469 C 210.378906 81.386719 212.980469 85.199219 216.730469 80.519531 L 217.199219 36.960938 C 217.199219 36.960938 214.949219 34.679688 213.058594 34.679688 C 211.210938 34.679688 208.921875 36.839844 208.921875 36.839844 Z M 209.238281 80.480469 "/>
<path fill-rule="evenodd" fill="rgb(100%, 79.998779%, 0%)" fill-opacity="1" d="M 142.441406 133.597656 C 142.441406 133.597656 143.609375 135.359375 145.921875 137.039062 L 145.71875 130.078125 "/>
<path fill-rule="evenodd" fill="rgb(83.099365%, 0%, 0%)" fill-opacity="1" d="M 428.28125 82.679688 L 432.609375 77.566406 L 437.328125 82.640625 L 438.238281 27.050781 C 438.238281 27.050781 434.660156 24.960938 429.738281 26.378906 Z M 428.28125 82.679688 "/>
<path fill-rule="evenodd" fill="rgb(83.099365%, 0%, 0%)" fill-opacity="1" d="M 340.078125 80.53125 L 344.289062 75.144531 L 348.378906 81.121094 L 351.839844 35.480469 C 350.660156 32.808594 343.859375 28.558594 343.859375 28.558594 Z M 340.078125 80.53125 "/>
<path fill-rule="evenodd" fill="rgb(83.099365%, 0%, 0%)" fill-opacity="1" d="M 138.238281 80.203125 L 142.050781 75.925781 L 146.210938 80.398438 L 146.640625 25.621094 C 145.339844 24.640625 142.988281 23.191406 139.851562 22.441406 C 139.21875 41.710938 138.75 60.980469 138.238281 80.203125 Z M 138.238281 80.203125 "/>
<path fill-rule="evenodd" fill="rgb(83.099365%, 0%, 0%)" fill-opacity="1" d="M 146.398438 25.558594 C 145.039062 24.558594 142.628906 23.039062 139.441406 22.320312 "/>
<path fill-rule="evenodd" fill="rgb(83.099365%, 0%, 0%)" fill-opacity="1" d="M 146.558594 37.558594 L 146.640625 25.621094 C 145.328125 24.640625 142.941406 23.191406 139.761719 22.441406 C 139.601562 27.191406 139.441406 31.898438 139.320312 36.660156 "/>
<path fill-rule="evenodd" fill="rgb(83.099365%, 0%, 0%)" fill-opacity="1" d="M 88.730469 80.519531 L 86.878906 93.582031 C 86.878906 93.582031 87.652344 97.320312 89.730469 97.320312 C 91.8125 97.320312 94.164062 95.195312 94.164062 95.195312 L 95.28125 87.917969 L 93.429688 83.902344 Z M 88.730469 80.519531 "/>
<path fill-rule="evenodd" fill="rgb(83.099365%, 0%, 0%)" fill-opacity="1" d="M 46.21875 80.519531 L 45 129.226562 C 46.96875 132.675781 48.539062 135.265625 49.25 135.96875 C 49.25 135.96875 50.625 137.421875 52.90625 138.480469 L 54.601562 80.519531 L 50.3125 84.597656 L 46.257812 80.519531 Z M 46.21875 80.519531 "/>
<path fill-rule="evenodd" fill="rgb(83.099365%, 0%, 0%)" fill-opacity="1" d="M 239.398438 26.089844 C 235.71875 23.421875 232.078125 22.558594 232.078125 22.558594 L 231.421875 46.039062 L 230.988281 60.851562 L 230.949219 60.851562 L 230.398438 80.402344 L 234.511719 75.101562 L 238.269531 80.640625 L 238.339844 76.988281 L 238.660156 60.851562 L 238.851562 51.539062 Z M 239.398438 26.089844 "/>
<path fill-rule="evenodd" fill="rgb(83.099365%, 0%, 0%)" fill-opacity="1" d="M 371.398438 80.640625 L 365.28125 86.1875 L 362.171875 80.914062 L 352.441406 109.511719 C 352.441406 109.511719 352.320312 114.191406 354.710938 115.136719 C 357.109375 116.039062 359.621094 113.246094 359.621094 113.246094 Z M 371.398438 80.640625 "/>
<path fill-rule="evenodd" fill="rgb(83.099365%, 0%, 0%)" fill-opacity="1" d="M 252.171875 80.636719 L 249.71875 126.429688 C 249.71875 126.429688 251.730469 128.28125 254.261719 128.28125 C 256.78125 128.28125 259.070312 124.699219 259.070312 124.699219 L 261.601562 80.519531 L 256.75 86.027344 Z M 252.171875 80.636719 "/>
<path fill-rule="evenodd" fill="rgb(83.099365%, 0%, 0%)" fill-opacity="1" d="M 159.800781 80.398438 L 157.320312 126.519531 C 157.320312 126.519531 159.050781 128.640625 161.179688 128.640625 C 163.308594 128.640625 165.441406 125.851562 165.441406 125.851562 L 168.238281 80.519531 L 163.898438 84.644531 Z M 159.800781 80.398438 "/>
<path fill-rule="evenodd" fill="rgb(100%, 79.998779%, 0%)" fill-opacity="1" d="M 340.058594 80.507812 L 336.121094 134.910156 C 336.121094 134.910156 338.128906 136.679688 340.371094 136.679688 C 342.648438 136.679688 344.269531 135.1875 344.269531 135.1875 L 348.359375 81.09375 L 344.269531 75.121094 Z M 340.058594 80.507812 "/>
<path fill-rule="evenodd" fill="rgb(100%, 79.998779%, 0%)" fill-opacity="1" d="M 159.839844 80.359375 L 163.898438 84.601562 L 168.199219 80.476562 L 170.039062 50.191406 C 169.921875 48.738281 162.109375 38.640625 162.109375 38.640625 Z M 159.839844 80.359375 "/>
<path fill-rule="evenodd" fill="rgb(100%, 79.998779%, 0%)" fill-opacity="1" d="M 88.679688 80.488281 L 93.480469 83.878906 L 89.429688 75.359375 Z M 88.679688 80.488281 "/>
<path fill-rule="evenodd" fill="rgb(100%, 79.998779%, 0%)" fill-opacity="1" d="M 362.160156 80.902344 L 365.289062 86.160156 L 371.429688 80.652344 L 376.441406 66.5 L 370.300781 57.238281 Z M 362.160156 80.902344 "/>
<path fill-rule="evenodd" fill="rgb(100%, 79.998779%, 0%)" fill-opacity="1" d="M 238.320312 80.667969 L 234.550781 75.121094 L 230.421875 80.433594 L 230.101562 91.84375 L 229.628906 107.347656 L 229.199219 122.816406 C 230.730469 126.238281 231.828125 128.480469 232.738281 130.09375 C 232.859375 130.371094 233.011719 130.644531 233.128906 130.882812 C 233.71875 131.863281 234.230469 132.613281 234.78125 133.28125 C 235.179688 133.792969 235.609375 134.265625 236.121094 134.777344 C 236.429688 135.09375 236.789062 135.445312 237.179688 135.839844 L 237.570312 117.070312 L 237.96875 98.339844 L 237.929688 98.296875 Z M 238.320312 80.667969 "/>
<path fill-rule="evenodd" fill="rgb(100%, 79.998779%, 0%)" fill-opacity="1" d="M 46.199219 80.398438 L 46.238281 80.398438 L 50.261719 84.480469 L 54.515625 80.398438 L 56.039062 27 C 56.039062 27 52.839844 24.101562 47.683594 22.921875 Z M 46.199219 80.398438 "/>
<path fill-rule="evenodd" fill="rgb(100%, 79.998779%, 0%)" fill-opacity="1" d="M 428.289062 82.617188 L 427.199219 125.441406 C 427.199219 125.441406 432.078125 136.109375 436.378906 141.601562 L 437.28125 82.578125 L 432.589844 77.519531 Z M 428.289062 82.617188 "/>
</svg>
