<?xml version="1.0" encoding="UTF-8"?>
<svg xmlns="http://www.w3.org/2000/svg" xmlns:xlink="http://www.w3.org/1999/xlink" width="420pt" height="315pt" viewBox="0 0 420 315">
<rect x="-42" y="-31.5" width="504" height="378" fill="rgb(100%, 100%, 100%)" fill-opacity="1"/>
<rect x="-42" y="-31.5" width="504" height="378" fill="rgb(100%, 100%, 100%)" fill-opacity="1"/>
<path fill-rule="nonzero" fill="rgb(100%, 100%, 100%)" fill-opacity="1" d="M 54.75 264.75 L 380.25 264.75 L 380.25 23.25 L 54.75 23.25 Z M 54.75 264.75 "/>
<path fill="none" stroke-width="12" stroke-linecap="butt" stroke-linejoin="bevel" stroke="rgb(87.304688%, 87.304688%, 87.304688%)" stroke-opacity="1" stroke-dasharray="75 45" stroke-miterlimit="10" d="M 3802.5 502.5 L 547.5 502.5 " transform="matrix(0.1, 0, 0, -0.1, 0, 315)"/>
<path fill="none" stroke-width="12" stroke-linecap="butt" stroke-linejoin="bevel" stroke="rgb(87.304688%, 87.304688%, 87.304688%)" stroke-opacity="1" stroke-dasharray="75 45" stroke-miterlimit="10" d="M 3802.5 847.5 L 547.5 847.5 " transform="matrix(0.1, 0, 0, -0.1, 0, 315)"/>
<path fill="none" stroke-width="12" stroke-linecap="butt" stroke-linejoin="bevel" stroke="rgb(87.304688%, 87.304688%, 87.304688%)" stroke-opacity="1" stroke-dasharray="75 45" stroke-miterlimit="10" d="M 3802.5 1192.5 L 547.5 1192.5 " transform="matrix(0.1, 0, 0, -0.1, 0, 315)"/>
<path fill="none" stroke-width="12" stroke-linecap="butt" stroke-linejoin="bevel" stroke="rgb(87.304688%, 87.304688%, 87.304688%)" stroke-opacity="1" stroke-dasharray="75 45" stroke-miterlimit="10" d="M 3802.5 1537.5 L 547.5 1537.5 " transform="matrix(0.1, 0, 0, -0.1, 0, 315)"/>
<path fill="none" stroke-width="12" stroke-linecap="butt" stroke-linejoin="bevel" stroke="rgb(87.304688%, 87.304688%, 87.304688%)" stroke-opacity="1" stroke-dasharray="75 45" stroke-miterlimit="10" d="M 3802.5 1882.5 L 547.5 1882.5 " transform="matrix(0.1, 0, 0, -0.1, 0, 315)"/>
<path fill="none" stroke-width="12" stroke-linecap="butt" stroke-linejoin="bevel" stroke="rgb(87.304688%, 87.304688%, 87.304688%)" stroke-opacity="1" stroke-dasharray="75 45" stroke-miterlimit="10" d="M 3802.5 2227.5 L 547.5 2227.5 " transform="matrix(0.1, 0, 0, -0.1, 0, 315)"/>
<path fill="none" stroke-width="12" stroke-linecap="butt" stroke-linejoin="bevel" stroke="rgb(87.304688%, 87.304688%, 87.304688%)" stroke-opacity="1" stroke-dasharray="75 45" stroke-miterlimit="10" d="M 3802.5 2572.5 L 547.5 2572.5 " transform="matrix(0.1, 0, 0, -0.1, 0, 315)"/>
<path fill="none" stroke-width="12" stroke-linecap="butt" stroke-linejoin="bevel" stroke="rgb(87.304688%, 87.304688%, 87.304688%)" stroke-opacity="1" stroke-dasharray="75 45" stroke-miterlimit="10" d="M 3802.5 2917.5 L 547.5 2917.5 " transform="matrix(0.1, 0, 0, -0.1, 0, 315)"/>
<path fill="none" stroke-width="12" stroke-linecap="square" stroke-linejoin="round" stroke="rgb(14.892578%, 14.892578%, 14.892578%)" stroke-opacity="1" stroke-miterlimit="10" d="M 547.5 502.5 L 3802.5 502.5 " transform="matrix(0.1, 0, 0, -0.1, 0, 315)"/>
<path fill="none" stroke-width="12" stroke-linecap="square" stroke-linejoin="round" stroke="rgb(14.892578%, 14.892578%, 14.892578%)" stroke-opacity="1" stroke-miterlimit="10" d="M 547.5 502.5 L 547.5 437.382812 " transform="matrix(0.1, 0, 0, -0.1, 0, 315)"/>
<path fill="none" stroke-width="12" stroke-linecap="square" stroke-linejoin="round" stroke="rgb(14.892578%, 14.892578%, 14.892578%)" stroke-opacity="1" stroke-miterlimit="10" d="M 1198.515625 502.5 L 1198.515625 437.382812 " transform="matrix(0.1, 0, 0, -0.1, 0, 315)"/>
<path fill="none" stroke-width="12" stroke-linecap="square" stroke-linejoin="round" stroke="rgb(14.892578%, 14.892578%, 14.892578%)" stroke-opacity="1" stroke-miterlimit="10" d="M 1849.492188 502.5 L 1849.492188 437.382812 " transform="matrix(0.1, 0, 0, -0.1, 0, 315)"/>
<path fill="none" stroke-width="12" stroke-linecap="square" stroke-linejoin="round" stroke="rgb(14.892578%, 14.892578%, 14.892578%)" stroke-opacity="1" stroke-miterlimit="10" d="M 2500.507812 502.5 L 2500.507812 437.382812 " transform="matrix(0.1, 0, 0, -0.1, 0, 315)"/>
<path fill="none" stroke-width="12" stroke-linecap="square" stroke-linejoin="round" stroke="rgb(14.892578%, 14.892578%, 14.892578%)" stroke-opacity="1" stroke-miterlimit="10" d="M 3151.484375 502.5 L 3151.484375 437.382812 " transform="matrix(0.1, 0, 0, -0.1, 0, 315)"/>
<path fill="none" stroke-width="12" stroke-linecap="square" stroke-linejoin="round" stroke="rgb(14.892578%, 14.892578%, 14.892578%)" stroke-opacity="1" stroke-miterlimit="10" d="M 3802.5 502.5 L 3802.5 437.382812 " transform="matrix(0.1, 0, 0, -0.1, 0, 315)"/>
<path fill="none" stroke-width="12" stroke-linecap="square" stroke-linejoin="round" stroke="rgb(14.892578%, 14.892578%, 14.892578%)" stroke-opacity="1" stroke-miterlimit="10" d="M 677.695312 502.5 L 677.695312 469.960938 " transform="matrix(0.1, 0, 0, -0.1, 0, 315)"/>
<path fill="none" stroke-width="12" stroke-linecap="square" stroke-linejoin="round" stroke="rgb(14.892578%, 14.892578%, 14.892578%)" stroke-opacity="1" stroke-miterlimit="10" d="M 807.890625 502.5 L 807.890625 469.960938 " transform="matrix(0.1, 0, 0, -0.1, 0, 315)"/>
<path fill="none" stroke-width="12" stroke-linecap="square" stroke-linejoin="round" stroke="rgb(14.892578%, 14.892578%, 14.892578%)" stroke-opacity="1" stroke-miterlimit="10" d="M 938.085938 502.5 L 938.085938 469.960938 " transform="matrix(0.1, 0, 0, -0.1, 0, 315)"/>
<path fill="none" stroke-width="12" stroke-linecap="square" stroke-linejoin="round" stroke="rgb(14.892578%, 14.892578%, 14.892578%)" stroke-opacity="1" stroke-miterlimit="10" d="M 1068.28125 502.5 L 1068.28125 469.960938 " transform="matrix(0.1, 0, 0, -0.1, 0, 315)"/>
<path fill="none" stroke-width="12" stroke-linecap="square" stroke-linejoin="round" stroke="rgb(14.892578%, 14.892578%, 14.892578%)" stroke-opacity="1" stroke-miterlimit="10" d="M 1328.710938 502.5 L 1328.710938 469.960938 " transform="matrix(0.1, 0, 0, -0.1, 0, 315)"/>
<path fill="none" stroke-width="12" stroke-linecap="square" stroke-linejoin="round" stroke="rgb(14.892578%, 14.892578%, 14.892578%)" stroke-opacity="1" stroke-miterlimit="10" d="M 1458.90625 502.5 L 1458.90625 469.960938 " transform="matrix(0.1, 0, 0, -0.1, 0, 315)"/>
<path fill="none" stroke-width="12" stroke-linecap="square" stroke-linejoin="round" stroke="rgb(14.892578%, 14.892578%, 14.892578%)" stroke-opacity="1" stroke-miterlimit="10" d="M 1589.101562 502.5 L 1589.101562 469.960938 " transform="matrix(0.1, 0, 0, -0.1, 0, 315)"/>
<path fill="none" stroke-width="12" stroke-linecap="square" stroke-linejoin="round" stroke="rgb(14.892578%, 14.892578%, 14.892578%)" stroke-opacity="1" stroke-miterlimit="10" d="M 1719.296875 502.5 L 1719.296875 469.960938 " transform="matrix(0.1, 0, 0, -0.1, 0, 315)"/>
<path fill="none" stroke-width="12" stroke-linecap="square" stroke-linejoin="round" stroke="rgb(14.892578%, 14.892578%, 14.892578%)" stroke-opacity="1" stroke-miterlimit="10" d="M 1979.6875 502.5 L 1979.6875 469.960938 " transform="matrix(0.1, 0, 0, -0.1, 0, 315)"/>
<path fill="none" stroke-width="12" stroke-linecap="square" stroke-linejoin="round" stroke="rgb(14.892578%, 14.892578%, 14.892578%)" stroke-opacity="1" stroke-miterlimit="10" d="M 2109.882812 502.5 L 2109.882812 469.960938 " transform="matrix(0.1, 0, 0, -0.1, 0, 315)"/>
<path fill="none" stroke-width="12" stroke-linecap="square" stroke-linejoin="round" stroke="rgb(14.892578%, 14.892578%, 14.892578%)" stroke-opacity="1" stroke-miterlimit="10" d="M 2240.117188 502.5 L 2240.117188 469.960938 " transform="matrix(0.1, 0, 0, -0.1, 0, 315)"/>
<path fill="none" stroke-width="12" stroke-linecap="square" stroke-linejoin="round" stroke="rgb(14.892578%, 14.892578%, 14.892578%)" stroke-opacity="1" stroke-miterlimit="10" d="M 2370.3125 502.5 L 2370.3125 469.960938 " transform="matrix(0.1, 0, 0, -0.1, 0, 315)"/>
<path fill="none" stroke-width="12" stroke-linecap="square" stroke-linejoin="round" stroke="rgb(14.892578%, 14.892578%, 14.892578%)" stroke-opacity="1" stroke-miterlimit="10" d="M 2630.703125 502.5 L 2630.703125 469.960938 " transform="matrix(0.1, 0, 0, -0.1, 0, 315)"/>
<path fill="none" stroke-width="12" stroke-linecap="square" stroke-linejoin="round" stroke="rgb(14.892578%, 14.892578%, 14.892578%)" stroke-opacity="1" stroke-miterlimit="10" d="M 2760.898438 502.5 L 2760.898438 469.960938 " transform="matrix(0.1, 0, 0, -0.1, 0, 315)"/>
<path fill="none" stroke-width="12" stroke-linecap="square" stroke-linejoin="round" stroke="rgb(14.892578%, 14.892578%, 14.892578%)" stroke-opacity="1" stroke-miterlimit="10" d="M 2891.09375 502.5 L 2891.09375 469.960938 " transform="matrix(0.1, 0, 0, -0.1, 0, 315)"/>
<path fill="none" stroke-width="12" stroke-linecap="square" stroke-linejoin="round" stroke="rgb(14.892578%, 14.892578%, 14.892578%)" stroke-opacity="1" stroke-miterlimit="10" d="M 3021.289062 502.5 L 3021.289062 469.960938 " transform="matrix(0.1, 0, 0, -0.1, 0, 315)"/>
<path fill="none" stroke-width="12" stroke-linecap="square" stroke-linejoin="round" stroke="rgb(14.892578%, 14.892578%, 14.892578%)" stroke-opacity="1" stroke-miterlimit="10" d="M 3281.71875 502.5 L 3281.71875 469.960938 " transform="matrix(0.1, 0, 0, -0.1, 0, 315)"/>
<path fill="none" stroke-width="12" stroke-linecap="square" stroke-linejoin="round" stroke="rgb(14.892578%, 14.892578%, 14.892578%)" stroke-opacity="1" stroke-miterlimit="10" d="M 3411.914062 502.5 L 3411.914062 469.960938 " transform="matrix(0.1, 0, 0, -0.1, 0, 315)"/>
<path fill="none" stroke-width="12" stroke-linecap="square" stroke-linejoin="round" stroke="rgb(14.892578%, 14.892578%, 14.892578%)" stroke-opacity="1" stroke-miterlimit="10" d="M 3542.109375 502.5 L 3542.109375 469.960938 " transform="matrix(0.1, 0, 0, -0.1, 0, 315)"/>
<path fill="none" stroke-width="12" stroke-linecap="square" stroke-linejoin="round" stroke="rgb(14.892578%, 14.892578%, 14.892578%)" stroke-opacity="1" stroke-miterlimit="10" d="M 3672.304688 502.5 L 3672.304688 469.960938 " transform="matrix(0.1, 0, 0, -0.1, 0, 315)"/>
<path fill-rule="nonzero" fill="rgb(14.892578%, 14.892578%, 14.892578%)" fill-opacity="1" d="M 54.75 289.1875 C 53.523438 289.1875 52.691406 288.683594 52.246094 287.675781 C 51.804688 286.667969 51.585938 285.46875 51.585938 284.078125 C 51.585938 283.210938 51.664062 282.394531 51.828125 281.625 C 51.984375 280.855469 52.300781 280.203125 52.769531 279.667969 C 53.238281 279.132812 53.898438 278.863281 54.75 278.863281 C 55.40625 278.863281 55.945312 279.027344 56.367188 279.351562 C 56.789062 279.675781 57.109375 280.09375 57.328125 280.605469 C 57.546875 281.117188 57.699219 281.664062 57.78125 282.246094 C 57.859375 282.828125 57.902344 283.4375 57.902344 284.078125 C 57.902344 284.9375 57.824219 285.742188 57.660156 286.492188 C 57.503906 287.242188 57.191406 287.878906 56.722656 288.402344 C 56.261719 288.925781 55.601562 289.1875 54.75 289.1875 Z M 54.75 288.800781 C 55.304688 288.800781 55.71875 288.515625 55.992188 287.945312 C 56.265625 287.375 56.433594 286.742188 56.503906 286.046875 C 56.570312 285.351562 56.601562 284.613281 56.601562 283.832031 C 56.601562 283.082031 56.570312 282.390625 56.503906 281.753906 C 56.433594 281.117188 56.269531 280.542969 55.996094 280.03125 C 55.726562 279.519531 55.3125 279.261719 54.75 279.261719 C 54.1875 279.261719 53.769531 279.519531 53.496094 280.035156 C 53.222656 280.550781 53.050781 281.125 52.984375 281.757812 C 52.917969 282.390625 52.886719 283.082031 52.886719 283.832031 C 52.886719 284.386719 52.902344 284.914062 52.925781 285.410156 C 52.957031 285.90625 53.027344 286.414062 53.144531 286.9375 C 53.261719 287.460938 53.453125 287.902344 53.714844 288.261719 C 53.972656 288.621094 54.320312 288.800781 54.75 288.800781 "/>
<path fill-rule="nonzero" fill="rgb(14.892578%, 14.892578%, 14.892578%)" fill-opacity="1" d="M 114.015625 289.1875 C 112.789062 289.1875 111.957031 288.683594 111.515625 287.675781 C 111.074219 286.667969 110.851562 285.46875 110.851562 284.078125 C 110.851562 283.210938 110.933594 282.394531 111.09375 281.625 C 111.253906 280.855469 111.566406 280.203125 112.035156 279.667969 C 112.503906 279.132812 113.164062 278.863281 114.015625 278.863281 C 114.671875 278.863281 115.210938 279.027344 115.632812 279.351562 C 116.054688 279.675781 116.375 280.09375 116.59375 280.605469 C 116.8125 281.117188 116.964844 281.664062 117.046875 282.246094 C 117.128906 282.828125 117.167969 283.4375 117.167969 284.078125 C 117.167969 284.9375 117.089844 285.742188 116.929688 286.492188 C 116.769531 287.242188 116.457031 287.878906 115.992188 288.402344 C 115.527344 288.925781 114.867188 289.1875 114.015625 289.1875 Z M 114.015625 288.800781 C 114.570312 288.800781 114.984375 288.515625 115.257812 287.945312 C 115.53125 287.375 115.703125 286.742188 115.769531 286.046875 C 115.835938 285.351562 115.867188 284.613281 115.867188 283.832031 C 115.867188 283.082031 115.835938 282.390625 115.769531 281.753906 C 115.703125 281.117188 115.535156 280.542969 115.265625 280.03125 C 114.996094 279.519531 114.578125 279.261719 114.015625 279.261719 C 113.453125 279.261719 113.035156 279.519531 112.761719 280.035156 C 112.488281 280.550781 112.320312 281.125 112.253906 281.757812 C 112.1875 282.390625 112.152344 283.082031 112.152344 283.832031 C 112.152344 284.386719 112.167969 284.914062 112.195312 285.410156 C 112.222656 285.90625 112.292969 286.414062 112.410156 286.9375 C 112.527344 287.460938 112.71875 287.902344 112.980469 288.261719 C 113.242188 288.621094 113.585938 288.800781 114.015625 288.800781 "/>
<path fill-rule="nonzero" fill="rgb(14.892578%, 14.892578%, 14.892578%)" fill-opacity="1" d="M 119.03125 288.027344 C 119.03125 287.808594 119.113281 287.617188 119.277344 287.453125 C 119.441406 287.289062 119.632812 287.207031 119.851562 287.207031 C 119.992188 287.207031 120.128906 287.246094 120.257812 287.320312 C 120.386719 287.394531 120.488281 287.496094 120.5625 287.628906 C 120.636719 287.761719 120.671875 287.894531 120.671875 288.027344 C 120.671875 288.246094 120.59375 288.441406 120.433594 288.609375 C 120.273438 288.777344 120.078125 288.859375 119.851562 288.859375 C 119.632812 288.859375 119.441406 288.777344 119.277344 288.609375 C 119.113281 288.441406 119.03125 288.246094 119.03125 288.027344 "/>
<path fill-rule="nonzero" fill="rgb(14.892578%, 14.892578%, 14.892578%)" fill-opacity="1" d="M 123.328125 288.859375 L 123.328125 288.332031 C 124.578125 288.332031 125.203125 288.171875 125.203125 287.851562 L 125.203125 279.976562 C 124.6875 280.226562 124.03125 280.351562 123.234375 280.351562 L 123.234375 279.824219 C 124.460938 279.824219 125.386719 279.503906 126.011719 278.863281 L 126.222656 278.863281 C 126.261719 278.863281 126.296875 278.878906 126.328125 278.90625 C 126.359375 278.933594 126.375 278.964844 126.375 279.003906 L 126.375 287.851562 C 126.375 288.171875 127 288.332031 128.25 288.332031 L 128.25 288.859375 L 123.328125 288.859375 "/>
<path fill-rule="nonzero" fill="rgb(14.892578%, 14.892578%, 14.892578%)" fill-opacity="1" d="M 179.117188 289.1875 C 177.890625 289.1875 177.054688 288.683594 176.613281 287.675781 C 176.171875 286.667969 175.953125 285.46875 175.953125 284.078125 C 175.953125 283.210938 176.03125 282.394531 176.191406 281.625 C 176.351562 280.855469 176.667969 280.203125 177.136719 279.667969 C 177.605469 279.132812 178.265625 278.863281 179.117188 278.863281 C 179.773438 278.863281 180.3125 279.027344 180.734375 279.351562 C 181.15625 279.675781 181.476562 280.09375 181.695312 280.605469 C 181.914062 281.117188 182.0625 281.664062 182.144531 282.246094 C 182.226562 282.828125 182.269531 283.4375 182.269531 284.078125 C 182.269531 284.9375 182.1875 285.742188 182.027344 286.492188 C 181.867188 287.242188 181.554688 287.878906 181.089844 288.402344 C 180.625 288.925781 179.96875 289.1875 179.117188 289.1875 Z M 179.117188 288.800781 C 179.671875 288.800781 180.085938 288.515625 180.359375 287.945312 C 180.632812 287.375 180.800781 286.742188 180.867188 286.046875 C 180.933594 285.351562 180.96875 284.613281 180.96875 283.832031 C 180.96875 283.082031 180.933594 282.390625 180.867188 281.753906 C 180.800781 281.117188 180.632812 280.542969 180.363281 280.03125 C 180.09375 279.519531 179.679688 279.261719 179.117188 279.261719 C 178.554688 279.261719 178.136719 279.519531 177.863281 280.035156 C 177.589844 280.550781 177.417969 281.125 177.351562 281.757812 C 177.285156 282.390625 177.253906 283.082031 177.253906 283.832031 C 177.253906 284.386719 177.265625 284.914062 177.296875 285.410156 C 177.320312 285.90625 177.394531 286.414062 177.511719 286.9375 C 177.628906 287.460938 177.816406 287.902344 178.078125 288.261719 C 178.339844 288.621094 178.6875 288.800781 179.117188 288.800781 "/>
<path fill-rule="nonzero" fill="rgb(14.892578%, 14.892578%, 14.892578%)" fill-opacity="1" d="M 184.132812 288.027344 C 184.132812 287.808594 184.214844 287.617188 184.378906 287.453125 C 184.542969 287.289062 184.734375 287.207031 184.953125 287.207031 C 185.09375 287.207031 185.226562 287.246094 185.355469 287.320312 C 185.484375 287.394531 185.585938 287.496094 185.660156 287.628906 C 185.734375 287.761719 185.773438 287.894531 185.773438 288.027344 C 185.773438 288.246094 185.691406 288.441406 185.53125 288.609375 C 185.371094 288.777344 185.179688 288.859375 184.953125 288.859375 C 184.734375 288.859375 184.542969 288.777344 184.378906 288.609375 C 184.214844 288.441406 184.132812 288.246094 184.132812 288.027344 "/>
<path fill-rule="nonzero" fill="rgb(14.892578%, 14.892578%, 14.892578%)" fill-opacity="1" d="M 187.785156 288.859375 L 187.785156 288.460938 C 187.785156 288.429688 187.789062 288.402344 187.808594 288.378906 L 190.140625 285.800781 C 190.492188 285.417969 190.777344 285.097656 190.992188 284.839844 C 191.214844 284.582031 191.429688 284.285156 191.644531 283.945312 C 191.859375 283.605469 192.03125 283.261719 192.15625 282.914062 C 192.28125 282.566406 192.34375 282.195312 192.34375 281.804688 C 192.34375 281.398438 192.265625 281.007812 192.113281 280.632812 C 191.960938 280.257812 191.738281 279.957031 191.441406 279.730469 C 191.144531 279.503906 190.78125 279.390625 190.351562 279.390625 C 189.921875 279.390625 189.53125 279.523438 189.183594 279.785156 C 188.835938 280.046875 188.59375 280.382812 188.449219 280.796875 C 188.492188 280.789062 188.539062 280.785156 188.605469 280.785156 C 188.828125 280.785156 189.023438 280.863281 189.183594 281.015625 C 189.34375 281.167969 189.425781 281.363281 189.425781 281.605469 C 189.425781 281.832031 189.34375 282.027344 189.183594 282.1875 C 189.023438 282.347656 188.828125 282.425781 188.605469 282.425781 C 188.371094 282.425781 188.175781 282.34375 188.019531 282.179688 C 187.859375 282.015625 187.785156 281.824219 187.785156 281.605469 C 187.785156 281.222656 187.855469 280.867188 187.992188 280.539062 C 188.136719 280.210938 188.339844 279.917969 188.605469 279.660156 C 188.871094 279.402344 189.171875 279.207031 189.507812 279.070312 C 189.84375 278.933594 190.199219 278.863281 190.574219 278.863281 C 191.144531 278.863281 191.675781 278.984375 192.164062 279.226562 C 192.660156 279.46875 193.050781 279.8125 193.339844 280.253906 C 193.628906 280.695312 193.769531 281.210938 193.769531 281.804688 C 193.769531 282.242188 193.675781 282.65625 193.484375 283.046875 C 193.292969 283.4375 193.050781 283.792969 192.753906 284.113281 C 192.453125 284.433594 192.074219 284.796875 191.609375 285.199219 C 191.144531 285.601562 190.84375 285.871094 190.699219 286.011719 L 189.003906 287.640625 L 190.445312 287.640625 C 191.148438 287.640625 191.734375 287.636719 192.214844 287.625 C 192.6875 287.613281 192.941406 287.59375 192.976562 287.570312 C 193.09375 287.445312 193.214844 286.984375 193.339844 286.1875 L 193.769531 286.1875 L 193.351562 288.859375 L 187.785156 288.859375 "/>
<path fill-rule="nonzero" fill="rgb(14.892578%, 14.892578%, 14.892578%)" fill-opacity="1" d="M 244.214844 289.1875 C 242.988281 289.1875 242.15625 288.683594 241.714844 287.675781 C 241.273438 286.667969 241.050781 285.46875 241.050781 284.078125 C 241.050781 283.210938 241.132812 282.394531 241.292969 281.625 C 241.453125 280.855469 241.769531 280.203125 242.238281 279.667969 C 242.703125 279.132812 243.363281 278.863281 244.214844 278.863281 C 244.871094 278.863281 245.410156 279.027344 245.835938 279.351562 C 246.253906 279.675781 246.574219 280.09375 246.796875 280.605469 C 247.015625 281.117188 247.164062 281.664062 247.246094 282.246094 C 247.328125 282.828125 247.367188 283.4375 247.367188 284.078125 C 247.367188 284.9375 247.289062 285.742188 247.128906 286.492188 C 246.96875 287.242188 246.65625 287.878906 246.191406 288.402344 C 245.726562 288.925781 245.066406 289.1875 244.214844 289.1875 Z M 244.214844 288.800781 C 244.769531 288.800781 245.1875 288.515625 245.460938 287.945312 C 245.730469 287.375 245.902344 286.742188 245.96875 286.046875 C 246.035156 285.351562 246.066406 284.613281 246.066406 283.832031 C 246.066406 283.082031 246.035156 282.390625 245.96875 281.753906 C 245.902344 281.117188 245.734375 280.542969 245.464844 280.03125 C 245.195312 279.519531 244.777344 279.261719 244.214844 279.261719 C 243.652344 279.261719 243.234375 279.519531 242.964844 280.035156 C 242.6875 280.550781 242.519531 281.125 242.453125 281.757812 C 242.386719 282.390625 242.355469 283.082031 242.355469 283.832031 C 242.355469 284.386719 242.367188 284.914062 242.394531 285.410156 C 242.421875 285.90625 242.492188 286.414062 242.613281 286.9375 C 242.730469 287.460938 242.917969 287.902344 243.179688 288.261719 C 243.441406 288.621094 243.785156 288.800781 244.214844 288.800781 "/>
<path fill-rule="nonzero" fill="rgb(14.892578%, 14.892578%, 14.892578%)" fill-opacity="1" d="M 249.230469 288.027344 C 249.230469 287.808594 249.3125 287.617188 249.480469 287.453125 C 249.644531 287.289062 249.835938 287.207031 250.050781 287.207031 C 250.191406 287.207031 250.328125 287.246094 250.457031 287.320312 C 250.585938 287.394531 250.6875 287.496094 250.761719 287.628906 C 250.835938 287.761719 250.871094 287.894531 250.871094 288.027344 C 250.871094 288.246094 250.792969 288.441406 250.632812 288.609375 C 250.472656 288.777344 250.277344 288.859375 250.050781 288.859375 C 249.835938 288.859375 249.644531 288.777344 249.480469 288.609375 C 249.3125 288.441406 249.230469 288.246094 249.230469 288.027344 "/>
<path fill-rule="nonzero" fill="rgb(14.892578%, 14.892578%, 14.892578%)" fill-opacity="1" d="M 253.5625 287.699219 C 253.796875 288.042969 254.113281 288.296875 254.507812 288.460938 C 254.902344 288.625 255.324219 288.707031 255.777344 288.707031 C 256.363281 288.707031 256.777344 288.460938 257.019531 287.96875 C 257.261719 287.476562 257.382812 286.914062 257.382812 286.28125 C 257.382812 286 257.359375 285.71875 257.308594 285.433594 C 257.257812 285.148438 257.171875 284.882812 257.050781 284.640625 C 256.929688 284.398438 256.761719 284.203125 256.546875 284.054688 C 256.332031 283.90625 256.070312 283.832031 255.765625 283.832031 L 254.769531 283.832031 C 254.683594 283.832031 254.640625 283.785156 254.640625 283.691406 L 254.640625 283.5625 C 254.640625 283.484375 254.683594 283.445312 254.769531 283.445312 L 255.601562 283.375 C 255.953125 283.375 256.246094 283.246094 256.476562 282.984375 C 256.707031 282.722656 256.875 282.402344 256.984375 282.023438 C 257.09375 281.644531 257.148438 281.28125 257.148438 280.9375 C 257.148438 280.460938 257.035156 280.070312 256.808594 279.761719 C 256.582031 279.453125 256.238281 279.296875 255.777344 279.296875 C 255.402344 279.296875 255.039062 279.371094 254.695312 279.515625 C 254.347656 279.660156 254.070312 279.878906 253.867188 280.175781 C 253.882812 280.167969 253.898438 280.164062 253.914062 280.160156 C 253.929688 280.15625 253.945312 280.152344 253.960938 280.152344 C 254.1875 280.152344 254.378906 280.230469 254.53125 280.386719 C 254.683594 280.542969 254.757812 280.734375 254.757812 280.960938 C 254.757812 281.171875 254.683594 281.355469 254.53125 281.511719 C 254.378906 281.667969 254.1875 281.746094 253.960938 281.746094 C 253.742188 281.746094 253.554688 281.667969 253.398438 281.511719 C 253.242188 281.355469 253.164062 281.171875 253.164062 280.960938 C 253.164062 280.53125 253.292969 280.15625 253.550781 279.835938 C 253.808594 279.515625 254.144531 279.273438 254.554688 279.109375 C 254.964844 278.945312 255.371094 278.863281 255.777344 278.863281 C 256.082031 278.863281 256.402344 278.910156 256.738281 279.003906 C 257.074219 279.097656 257.378906 279.230469 257.652344 279.398438 C 257.925781 279.566406 258.152344 279.78125 258.328125 280.042969 C 258.503906 280.304688 258.589844 280.601562 258.589844 280.9375 C 258.589844 281.359375 258.496094 281.75 258.308594 282.105469 C 258.121094 282.460938 257.863281 282.769531 257.535156 283.03125 C 257.207031 283.292969 256.847656 283.484375 256.457031 283.609375 C 256.886719 283.6875 257.296875 283.851562 257.6875 284.097656 C 258.078125 284.34375 258.394531 284.65625 258.632812 285.035156 C 258.871094 285.414062 258.988281 285.824219 258.988281 286.269531 C 258.988281 286.816406 258.839844 287.316406 258.539062 287.765625 C 258.238281 288.214844 257.839844 288.5625 257.34375 288.8125 C 256.847656 289.0625 256.324219 289.1875 255.777344 289.1875 C 255.308594 289.1875 254.839844 289.097656 254.371094 288.917969 C 253.902344 288.738281 253.519531 288.472656 253.21875 288.117188 C 252.917969 287.761719 252.765625 287.332031 252.765625 286.832031 C 252.765625 286.589844 252.847656 286.386719 253.011719 286.21875 C 253.175781 286.050781 253.382812 285.964844 253.632812 285.964844 C 253.796875 285.964844 253.945312 286.003906 254.078125 286.078125 C 254.210938 286.152344 254.316406 286.257812 254.394531 286.394531 C 254.472656 286.53125 254.511719 286.675781 254.511719 286.832031 C 254.511719 287.082031 254.425781 287.289062 254.253906 287.453125 C 254.082031 287.617188 253.875 287.699219 253.632812 287.699219 L 253.5625 287.699219 "/>
<path fill-rule="nonzero" fill="rgb(14.892578%, 14.892578%, 14.892578%)" fill-opacity="1" d="M 309.316406 289.1875 C 308.089844 289.1875 307.257812 288.683594 306.8125 287.675781 C 306.371094 286.667969 306.152344 285.46875 306.152344 284.078125 C 306.152344 283.210938 306.230469 282.394531 306.394531 281.625 C 306.554688 280.855469 306.867188 280.203125 307.335938 279.667969 C 307.804688 279.132812 308.464844 278.863281 309.316406 278.863281 C 309.972656 278.863281 310.511719 279.027344 310.933594 279.351562 C 311.355469 279.675781 311.675781 280.09375 311.894531 280.605469 C 312.113281 281.117188 312.265625 281.664062 312.347656 282.246094 C 312.429688 282.828125 312.46875 283.4375 312.46875 284.078125 C 312.46875 284.9375 312.390625 285.742188 312.230469 286.492188 C 312.070312 287.242188 311.757812 287.878906 311.289062 288.402344 C 310.824219 288.925781 310.167969 289.1875 309.316406 289.1875 Z M 309.316406 288.800781 C 309.871094 288.800781 310.285156 288.515625 310.558594 287.945312 C 310.832031 287.375 311.003906 286.742188 311.066406 286.046875 C 311.136719 285.351562 311.167969 284.613281 311.167969 283.832031 C 311.167969 283.082031 311.136719 282.390625 311.066406 281.753906 C 311.003906 281.117188 310.835938 280.542969 310.5625 280.03125 C 310.296875 279.519531 309.878906 279.261719 309.316406 279.261719 C 308.753906 279.261719 308.335938 279.519531 308.0625 280.035156 C 307.789062 280.550781 307.617188 281.125 307.554688 281.757812 C 307.488281 282.390625 307.453125 283.082031 307.453125 283.832031 C 307.453125 284.386719 307.46875 284.914062 307.496094 285.410156 C 307.523438 285.90625 307.59375 286.414062 307.710938 286.9375 C 307.828125 287.460938 308.019531 287.902344 308.277344 288.261719 C 308.539062 288.621094 308.886719 288.800781 309.316406 288.800781 "/>
<path fill-rule="nonzero" fill="rgb(14.892578%, 14.892578%, 14.892578%)" fill-opacity="1" d="M 314.332031 288.027344 C 314.332031 287.808594 314.414062 287.617188 314.578125 287.453125 C 314.742188 287.289062 314.933594 287.207031 315.152344 287.207031 C 315.292969 287.207031 315.429688 287.246094 315.558594 287.320312 C 315.6875 287.394531 315.785156 287.496094 315.863281 287.628906 C 315.9375 287.761719 315.972656 287.894531 315.972656 288.027344 C 315.972656 288.246094 315.894531 288.441406 315.734375 288.609375 C 315.574219 288.777344 315.378906 288.859375 315.152344 288.859375 C 314.933594 288.859375 314.742188 288.777344 314.578125 288.609375 C 314.414062 288.441406 314.332031 288.246094 314.332031 288.027344 "/>
<path fill-rule="nonzero" fill="rgb(14.892578%, 14.892578%, 14.892578%)" fill-opacity="1" d="M 317.65625 286.386719 L 317.65625 285.859375 L 322.285156 278.945312 C 322.324219 278.890625 322.375 278.863281 322.4375 278.863281 L 322.660156 278.863281 C 322.777344 278.863281 322.835938 278.921875 322.835938 279.039062 L 322.835938 285.859375 L 324.300781 285.859375 L 324.300781 286.386719 L 322.835938 286.386719 L 322.835938 287.851562 C 322.835938 288.0625 322.980469 288.195312 323.273438 288.25 C 323.566406 288.304688 323.90625 288.332031 324.289062 288.332031 L 324.289062 288.859375 L 320.152344 288.859375 L 320.152344 288.332031 C 320.542969 288.332031 320.882812 288.304688 321.175781 288.25 C 321.46875 288.195312 321.617188 288.0625 321.617188 287.851562 L 321.617188 286.386719 Z M 318.148438 285.859375 L 321.699219 285.859375 L 321.699219 280.550781 Z M 318.148438 285.859375 "/>
<path fill-rule="nonzero" fill="rgb(14.892578%, 14.892578%, 14.892578%)" fill-opacity="1" d="M 374.414062 289.1875 C 373.191406 289.1875 372.355469 288.683594 371.914062 287.675781 C 371.472656 286.667969 371.253906 285.46875 371.253906 284.078125 C 371.253906 283.210938 371.332031 282.394531 371.492188 281.625 C 371.652344 280.855469 371.96875 280.203125 372.4375 279.667969 C 372.90625 279.132812 373.566406 278.863281 374.414062 278.863281 C 375.074219 278.863281 375.613281 279.027344 376.035156 279.351562 C 376.453125 279.675781 376.777344 280.09375 376.996094 280.605469 C 377.214844 281.117188 377.363281 281.664062 377.445312 282.246094 C 377.527344 282.828125 377.570312 283.4375 377.570312 284.078125 C 377.570312 284.9375 377.488281 285.742188 377.328125 286.492188 C 377.167969 287.242188 376.855469 287.878906 376.390625 288.402344 C 375.925781 288.925781 375.269531 289.1875 374.414062 289.1875 Z M 374.414062 288.800781 C 374.972656 288.800781 375.386719 288.515625 375.660156 287.945312 C 375.933594 287.375 376.101562 286.742188 376.167969 286.046875 C 376.234375 285.351562 376.269531 284.613281 376.269531 283.832031 C 376.269531 283.082031 376.234375 282.390625 376.167969 281.753906 C 376.101562 281.117188 375.933594 280.542969 375.664062 280.03125 C 375.394531 279.519531 374.980469 279.261719 374.414062 279.261719 C 373.855469 279.261719 373.4375 279.519531 373.164062 280.035156 C 372.890625 280.550781 372.71875 281.125 372.652344 281.757812 C 372.585938 282.390625 372.554688 283.082031 372.554688 283.832031 C 372.554688 284.386719 372.566406 284.914062 372.59375 285.410156 C 372.621094 285.90625 372.695312 286.414062 372.8125 286.9375 C 372.929688 287.460938 373.117188 287.902344 373.378906 288.261719 C 373.640625 288.621094 373.988281 288.800781 374.414062 288.800781 "/>
<path fill-rule="nonzero" fill="rgb(14.892578%, 14.892578%, 14.892578%)" fill-opacity="1" d="M 379.433594 288.027344 C 379.433594 287.808594 379.515625 287.617188 379.679688 287.453125 C 379.84375 287.289062 380.035156 287.207031 380.253906 287.207031 C 380.394531 287.207031 380.527344 287.246094 380.65625 287.320312 C 380.785156 287.394531 380.886719 287.496094 380.960938 287.628906 C 381.035156 287.761719 381.074219 287.894531 381.074219 288.027344 C 381.074219 288.246094 380.992188 288.441406 380.832031 288.609375 C 380.671875 288.777344 380.480469 288.859375 380.253906 288.859375 C 380.035156 288.859375 379.84375 288.777344 379.679688 288.609375 C 379.515625 288.441406 379.433594 288.246094 379.433594 288.027344 "/>
<path fill-rule="nonzero" fill="rgb(14.892578%, 14.892578%, 14.892578%)" fill-opacity="1" d="M 383.632812 287.148438 C 383.734375 287.445312 383.894531 287.714844 384.109375 287.953125 C 384.324219 288.191406 384.574219 288.375 384.863281 288.507812 C 385.152344 288.640625 385.453125 288.707031 385.765625 288.707031 C 386.492188 288.707031 386.992188 288.429688 387.265625 287.871094 C 387.539062 287.3125 387.675781 286.628906 387.675781 285.824219 C 387.675781 285.480469 387.671875 285.191406 387.660156 284.953125 C 387.648438 284.714844 387.613281 284.484375 387.558594 284.265625 C 387.464844 283.914062 387.300781 283.609375 387.066406 283.347656 C 386.835938 283.085938 386.546875 282.953125 386.214844 282.953125 C 385.878906 282.953125 385.585938 283.003906 385.34375 283.105469 C 385.101562 283.207031 384.90625 283.328125 384.757812 283.464844 C 384.609375 283.601562 384.476562 283.746094 384.359375 283.898438 C 384.242188 284.050781 384.171875 284.128906 384.136719 284.136719 L 383.964844 284.136719 C 383.9375 284.136719 383.910156 284.121094 383.875 284.089844 C 383.839844 284.058594 383.820312 284.027344 383.820312 283.996094 L 383.820312 278.980469 C 383.820312 278.957031 383.835938 278.933594 383.867188 278.90625 C 383.898438 278.878906 383.929688 278.863281 383.964844 278.863281 L 384.007812 278.863281 C 384.679688 279.191406 385.394531 279.355469 386.152344 279.355469 C 386.894531 279.355469 387.609375 279.191406 388.296875 278.863281 L 388.34375 278.863281 C 388.382812 278.863281 388.417969 278.878906 388.445312 278.90625 C 388.472656 278.933594 388.484375 278.957031 388.484375 278.980469 L 388.484375 279.121094 C 388.484375 279.175781 388.476562 279.203125 388.464844 279.203125 C 388.117188 279.65625 387.6875 280.011719 387.171875 280.265625 C 386.65625 280.519531 386.121094 280.644531 385.566406 280.644531 C 385.167969 280.644531 384.757812 280.585938 384.339844 280.46875 L 384.339844 283.304688 C 384.671875 283.039062 384.972656 282.847656 385.234375 282.730469 C 385.496094 282.613281 385.828125 282.554688 386.234375 282.554688 C 386.78125 282.554688 387.273438 282.714844 387.714844 283.035156 C 388.148438 283.355469 388.484375 283.769531 388.71875 284.277344 C 388.953125 284.785156 389.070312 285.304688 389.070312 285.835938 C 389.070312 286.4375 388.921875 286.996094 388.625 287.511719 C 388.328125 288.027344 387.925781 288.4375 387.417969 288.738281 C 386.910156 289.039062 386.359375 289.1875 385.765625 289.1875 C 385.273438 289.1875 384.820312 289.0625 384.40625 288.808594 C 383.992188 288.554688 383.667969 288.210938 383.433594 287.78125 C 383.199219 287.351562 383.085938 286.894531 383.085938 286.410156 C 383.085938 286.183594 383.15625 286 383.300781 285.859375 C 383.445312 285.71875 383.625 285.648438 383.84375 285.648438 C 384.070312 285.648438 384.257812 285.722656 384.40625 285.867188 C 384.554688 286.011719 384.628906 286.191406 384.628906 286.410156 C 384.628906 286.628906 384.554688 286.8125 384.40625 286.960938 C 384.257812 287.109375 384.070312 287.183594 383.84375 287.183594 C 383.8125 287.183594 383.777344 287.179688 383.734375 287.171875 C 383.691406 287.164062 383.65625 287.15625 383.632812 287.148438 "/>
<path fill-rule="nonzero" fill="rgb(14.892578%, 14.892578%, 14.892578%)" fill-opacity="1" d="M 195.15625 311.777344 C 195.359375 311.933594 195.605469 312.011719 195.894531 312.011719 C 196.285156 312.011719 196.605469 311.578125 196.855469 310.710938 C 196.960938 310.289062 197.234375 308.910156 197.6875 306.574219 L 198.449219 302.519531 L 197.03125 302.519531 C 196.921875 302.519531 196.867188 302.449219 196.867188 302.308594 C 196.914062 302.066406 196.984375 301.945312 197.078125 301.945312 L 198.554688 301.945312 L 198.742188 300.867188 C 198.8125 300.539062 198.875 300.257812 198.925781 300.019531 C 198.976562 299.78125 199.03125 299.558594 199.09375 299.351562 C 199.15625 299.144531 199.253906 298.914062 199.378906 298.664062 C 199.5625 298.304688 199.816406 298.007812 200.136719 297.773438 C 200.460938 297.539062 200.800781 297.421875 201.171875 297.421875 C 201.410156 297.421875 201.648438 297.46875 201.878906 297.558594 C 202.109375 297.648438 202.296875 297.78125 202.441406 297.957031 C 202.585938 298.132812 202.65625 298.339844 202.65625 298.582031 C 202.65625 298.863281 202.5625 299.109375 202.378906 299.316406 C 202.1875 299.523438 201.964844 299.625 201.707031 299.625 C 201.527344 299.625 201.378906 299.570312 201.253906 299.460938 C 201.128906 299.351562 201.0625 299.207031 201.0625 299.027344 C 201.0625 298.785156 201.144531 298.574219 201.308594 298.394531 C 201.472656 298.214844 201.675781 298.113281 201.921875 298.089844 C 201.714844 297.933594 201.460938 297.855469 201.15625 297.855469 C 200.992188 297.855469 200.839844 297.933594 200.6875 298.089844 C 200.539062 298.246094 200.441406 298.410156 200.394531 298.582031 C 200.324219 298.863281 200.171875 299.621094 199.9375 300.855469 L 199.738281 301.945312 L 201.4375 301.945312 C 201.546875 301.945312 201.601562 302.015625 201.601562 302.15625 C 201.59375 302.1875 201.585938 302.238281 201.566406 302.304688 C 201.550781 302.371094 201.527344 302.421875 201.496094 302.460938 C 201.464844 302.5 201.429688 302.519531 201.394531 302.519531 L 199.621094 302.519531 L 198.859375 306.550781 C 198.765625 307.136719 198.65625 307.734375 198.527344 308.339844 C 198.398438 308.945312 198.21875 309.566406 197.992188 310.203125 C 197.765625 310.839844 197.476562 311.371094 197.121094 311.800781 C 196.765625 312.230469 196.34375 312.445312 195.859375 312.445312 C 195.492188 312.445312 195.164062 312.339844 194.871094 312.125 C 194.578125 311.910156 194.429688 311.628906 194.429688 311.285156 C 194.429688 311.003906 194.519531 310.761719 194.699219 310.554688 C 194.878906 310.347656 195.105469 310.242188 195.378906 310.242188 C 195.558594 310.242188 195.710938 310.296875 195.835938 310.40625 C 195.960938 310.515625 196.023438 310.660156 196.023438 310.839844 C 196.023438 311.074219 195.9375 311.289062 195.761719 311.484375 C 195.585938 311.679688 195.382812 311.777344 195.15625 311.777344 "/>
<path fill-rule="nonzero" fill="rgb(14.892578%, 14.892578%, 14.892578%)" fill-opacity="1" d="M 214.027344 313.148438 C 213.410156 312.664062 212.882812 312.109375 212.441406 311.484375 C 211.996094 310.859375 211.636719 310.195312 211.355469 309.488281 C 211.074219 308.78125 210.863281 308.039062 210.722656 307.265625 C 210.582031 306.492188 210.511719 305.714844 210.511719 304.933594 C 210.511719 304.144531 210.582031 303.363281 210.722656 302.589844 C 210.863281 301.816406 211.078125 301.074219 211.359375 300.359375 C 211.644531 299.644531 212.011719 298.976562 212.457031 298.355469 C 212.902344 297.734375 213.425781 297.1875 214.027344 296.71875 C 214.027344 296.695312 214.050781 296.683594 214.097656 296.683594 L 214.261719 296.683594 C 214.292969 296.683594 214.320312 296.699219 214.347656 296.730469 C 214.378906 296.761719 214.390625 296.792969 214.390625 296.824219 C 214.390625 296.878906 214.378906 296.914062 214.355469 296.929688 C 213.816406 297.460938 213.367188 298.027344 213.015625 298.628906 C 212.65625 299.230469 212.371094 299.871094 212.152344 300.550781 C 211.933594 301.230469 211.773438 301.933594 211.679688 302.660156 C 211.578125 303.386719 211.53125 304.144531 211.53125 304.933594 C 211.53125 308.433594 212.464844 311.089844 214.332031 312.902344 C 214.371094 312.933594 214.390625 312.980469 214.390625 313.042969 C 214.390625 313.066406 214.375 313.097656 214.34375 313.132812 C 214.3125 313.167969 214.285156 313.183594 214.261719 313.183594 L 214.097656 313.183594 C 214.050781 313.183594 214.027344 313.171875 214.027344 313.148438 "/>
<path fill-rule="nonzero" fill="rgb(14.892578%, 14.892578%, 14.892578%)" fill-opacity="1" d="M 215.828125 309.058594 L 215.828125 308.472656 C 216.960938 308.472656 217.527344 308.300781 217.527344 307.957031 L 217.527344 298.886719 C 217.527344 298.542969 216.960938 298.371094 215.828125 298.371094 L 215.828125 297.785156 L 220.773438 297.785156 L 220.773438 298.371094 C 219.640625 298.371094 219.074219 298.542969 219.074219 298.886719 L 219.074219 302.90625 L 223.9375 302.90625 L 223.9375 298.886719 C 223.9375 298.542969 223.371094 298.371094 222.238281 298.371094 L 222.238281 297.785156 L 227.171875 297.785156 L 227.171875 298.371094 C 226.039062 298.371094 225.472656 298.542969 225.472656 298.886719 L 225.472656 307.957031 C 225.472656 308.300781 226.039062 308.472656 227.171875 308.472656 L 227.171875 309.058594 L 222.238281 309.058594 L 222.238281 308.472656 C 223.371094 308.472656 223.9375 308.300781 223.9375 307.957031 L 223.9375 303.480469 L 219.074219 303.480469 L 219.074219 307.957031 C 219.074219 308.300781 219.640625 308.472656 220.773438 308.472656 L 220.773438 309.058594 L 215.828125 309.058594 "/>
<path fill-rule="nonzero" fill="rgb(14.892578%, 14.892578%, 14.892578%)" fill-opacity="1" d="M 228.34375 309.058594 C 228.21875 309.058594 228.15625 308.996094 228.15625 308.871094 L 228.15625 308.742188 C 228.15625 308.703125 228.171875 308.667969 228.203125 308.636719 L 232.820312 302.378906 L 231.332031 302.378906 C 230.863281 302.378906 230.476562 302.410156 230.175781 302.46875 C 229.875 302.527344 229.625 302.636719 229.425781 302.800781 C 229.226562 302.964844 229.085938 303.191406 229 303.480469 C 228.914062 303.769531 228.871094 304.164062 228.871094 304.664062 L 228.390625 304.664062 L 228.578125 301.945312 L 234.109375 301.945312 C 234.15625 301.945312 234.195312 301.964844 234.230469 302 C 234.265625 302.035156 234.285156 302.078125 234.285156 302.132812 L 234.285156 302.226562 C 234.285156 302.257812 234.273438 302.296875 234.25 302.34375 L 229.632812 308.578125 L 231.214844 308.578125 C 231.691406 308.578125 232.089844 308.550781 232.410156 308.492188 C 232.730469 308.433594 233.003906 308.289062 233.230469 308.0625 C 233.433594 307.859375 233.574219 307.582031 233.652344 307.226562 C 233.730469 306.871094 233.792969 306.429688 233.839844 305.90625 L 234.308594 305.90625 L 234.027344 309.058594 L 228.34375 309.058594 "/>
<path fill-rule="nonzero" fill="rgb(14.892578%, 14.892578%, 14.892578%)" fill-opacity="1" d="M 236.097656 313.183594 C 236.003906 313.183594 235.957031 313.136719 235.957031 313.042969 C 235.957031 312.988281 235.96875 312.953125 235.992188 312.9375 C 237.867188 311.101562 238.804688 308.433594 238.804688 304.933594 C 238.804688 301.433594 237.878906 298.777344 236.027344 296.964844 C 235.980469 296.941406 235.957031 296.894531 235.957031 296.824219 C 235.957031 296.792969 235.972656 296.761719 236.003906 296.730469 C 236.035156 296.699219 236.066406 296.683594 236.097656 296.683594 L 236.261719 296.683594 C 236.292969 296.683594 236.316406 296.695312 236.332031 296.71875 C 237.121094 297.335938 237.78125 298.09375 238.308594 298.988281 C 238.835938 299.882812 239.222656 300.832031 239.46875 301.839844 C 239.714844 302.847656 239.835938 303.878906 239.835938 304.933594 C 239.835938 305.714844 239.769531 306.484375 239.636719 307.238281 C 239.503906 307.992188 239.296875 308.734375 239.011719 309.46875 C 238.726562 310.203125 238.359375 310.878906 237.921875 311.496094 C 237.480469 312.113281 236.949219 312.664062 236.332031 313.148438 C 236.316406 313.171875 236.292969 313.183594 236.261719 313.183594 L 236.097656 313.183594 "/>
<path fill="none" stroke-width="12" stroke-linecap="square" stroke-linejoin="round" stroke="rgb(14.892578%, 14.892578%, 14.892578%)" stroke-opacity="1" stroke-miterlimit="10" d="M 547.5 502.5 L 547.5 2917.5 " transform="matrix(0.1, 0, 0, -0.1, 0, 315)"/>
<path fill="none" stroke-width="12" stroke-linecap="square" stroke-linejoin="round" stroke="rgb(14.892578%, 14.892578%, 14.892578%)" stroke-opacity="1" stroke-miterlimit="10" d="M 547.5 502.5 L 482.382812 502.5 " transform="matrix(0.1, 0, 0, -0.1, 0, 315)"/>
<path fill="none" stroke-width="12" stroke-linecap="square" stroke-linejoin="round" stroke="rgb(14.892578%, 14.892578%, 14.892578%)" stroke-opacity="1" stroke-miterlimit="10" d="M 547.5 847.5 L 482.382812 847.5 " transform="matrix(0.1, 0, 0, -0.1, 0, 315)"/>
<path fill="none" stroke-width="12" stroke-linecap="square" stroke-linejoin="round" stroke="rgb(14.892578%, 14.892578%, 14.892578%)" stroke-opacity="1" stroke-miterlimit="10" d="M 547.5 1192.5 L 482.382812 1192.5 " transform="matrix(0.1, 0, 0, -0.1, 0, 315)"/>
<path fill="none" stroke-width="12" stroke-linecap="square" stroke-linejoin="round" stroke="rgb(14.892578%, 14.892578%, 14.892578%)" stroke-opacity="1" stroke-miterlimit="10" d="M 547.5 1537.5 L 482.382812 1537.5 " transform="matrix(0.1, 0, 0, -0.1, 0, 315)"/>
<path fill="none" stroke-width="12" stroke-linecap="square" stroke-linejoin="round" stroke="rgb(14.892578%, 14.892578%, 14.892578%)" stroke-opacity="1" stroke-miterlimit="10" d="M 547.5 1882.5 L 482.382812 1882.5 " transform="matrix(0.1, 0, 0, -0.1, 0, 315)"/>
<path fill="none" stroke-width="12" stroke-linecap="square" stroke-linejoin="round" stroke="rgb(14.892578%, 14.892578%, 14.892578%)" stroke-opacity="1" stroke-miterlimit="10" d="M 547.5 2227.5 L 482.382812 2227.5 " transform="matrix(0.1, 0, 0, -0.1, 0, 315)"/>
<path fill="none" stroke-width="12" stroke-linecap="square" stroke-linejoin="round" stroke="rgb(14.892578%, 14.892578%, 14.892578%)" stroke-opacity="1" stroke-miterlimit="10" d="M 547.5 2572.5 L 482.382812 2572.5 " transform="matrix(0.1, 0, 0, -0.1, 0, 315)"/>
<path fill="none" stroke-width="12" stroke-linecap="square" stroke-linejoin="round" stroke="rgb(14.892578%, 14.892578%, 14.892578%)" stroke-opacity="1" stroke-miterlimit="10" d="M 547.5 2917.5 L 482.382812 2917.5 " transform="matrix(0.1, 0, 0, -0.1, 0, 315)"/>
<path fill="none" stroke-width="12" stroke-linecap="square" stroke-linejoin="round" stroke="rgb(14.892578%, 14.892578%, 14.892578%)" stroke-opacity="1" stroke-miterlimit="10" d="M 547.5 588.75 L 514.960938 588.75 " transform="matrix(0.1, 0, 0, -0.1, 0, 315)"/>
<path fill="none" stroke-width="12" stroke-linecap="square" stroke-linejoin="round" stroke="rgb(14.892578%, 14.892578%, 14.892578%)" stroke-opacity="1" stroke-miterlimit="10" d="M 547.5 675 L 514.960938 675 " transform="matrix(0.1, 0, 0, -0.1, 0, 315)"/>
<path fill="none" stroke-width="12" stroke-linecap="square" stroke-linejoin="round" stroke="rgb(14.892578%, 14.892578%, 14.892578%)" stroke-opacity="1" stroke-miterlimit="10" d="M 547.5 761.25 L 514.960938 761.25 " transform="matrix(0.1, 0, 0, -0.1, 0, 315)"/>
<path fill="none" stroke-width="12" stroke-linecap="square" stroke-linejoin="round" stroke="rgb(14.892578%, 14.892578%, 14.892578%)" stroke-opacity="1" stroke-miterlimit="10" d="M 547.5 933.75 L 514.960938 933.75 " transform="matrix(0.1, 0, 0, -0.1, 0, 315)"/>
<path fill="none" stroke-width="12" stroke-linecap="square" stroke-linejoin="round" stroke="rgb(14.892578%, 14.892578%, 14.892578%)" stroke-opacity="1" stroke-miterlimit="10" d="M 547.5 1020 L 514.960938 1020 " transform="matrix(0.1, 0, 0, -0.1, 0, 315)"/>
<path fill="none" stroke-width="12" stroke-linecap="square" stroke-linejoin="round" stroke="rgb(14.892578%, 14.892578%, 14.892578%)" stroke-opacity="1" stroke-miterlimit="10" d="M 547.5 1106.25 L 514.960938 1106.25 " transform="matrix(0.1, 0, 0, -0.1, 0, 315)"/>
<path fill="none" stroke-width="12" stroke-linecap="square" stroke-linejoin="round" stroke="rgb(14.892578%, 14.892578%, 14.892578%)" stroke-opacity="1" stroke-miterlimit="10" d="M 547.5 1278.75 L 514.960938 1278.75 " transform="matrix(0.1, 0, 0, -0.1, 0, 315)"/>
<path fill="none" stroke-width="12" stroke-linecap="square" stroke-linejoin="round" stroke="rgb(14.892578%, 14.892578%, 14.892578%)" stroke-opacity="1" stroke-miterlimit="10" d="M 547.5 1365 L 514.960938 1365 " transform="matrix(0.1, 0, 0, -0.1, 0, 315)"/>
<path fill="none" stroke-width="12" stroke-linecap="square" stroke-linejoin="round" stroke="rgb(14.892578%, 14.892578%, 14.892578%)" stroke-opacity="1" stroke-miterlimit="10" d="M 547.5 1451.25 L 514.960938 1451.25 " transform="matrix(0.1, 0, 0, -0.1, 0, 315)"/>
<path fill="none" stroke-width="12" stroke-linecap="square" stroke-linejoin="round" stroke="rgb(14.892578%, 14.892578%, 14.892578%)" stroke-opacity="1" stroke-miterlimit="10" d="M 547.5 1623.75 L 514.960938 1623.75 " transform="matrix(0.1, 0, 0, -0.1, 0, 315)"/>
<path fill="none" stroke-width="12" stroke-linecap="square" stroke-linejoin="round" stroke="rgb(14.892578%, 14.892578%, 14.892578%)" stroke-opacity="1" stroke-miterlimit="10" d="M 547.5 1710 L 514.960938 1710 " transform="matrix(0.1, 0, 0, -0.1, 0, 315)"/>
<path fill="none" stroke-width="12" stroke-linecap="square" stroke-linejoin="round" stroke="rgb(14.892578%, 14.892578%, 14.892578%)" stroke-opacity="1" stroke-miterlimit="10" d="M 547.5 1796.25 L 514.960938 1796.25 " transform="matrix(0.1, 0, 0, -0.1, 0, 315)"/>
<path fill="none" stroke-width="12" stroke-linecap="square" stroke-linejoin="round" stroke="rgb(14.892578%, 14.892578%, 14.892578%)" stroke-opacity="1" stroke-miterlimit="10" d="M 547.5 1968.75 L 514.960938 1968.75 " transform="matrix(0.1, 0, 0, -0.1, 0, 315)"/>
<path fill="none" stroke-width="12" stroke-linecap="square" stroke-linejoin="round" stroke="rgb(14.892578%, 14.892578%, 14.892578%)" stroke-opacity="1" stroke-miterlimit="10" d="M 547.5 2055 L 514.960938 2055 " transform="matrix(0.1, 0, 0, -0.1, 0, 315)"/>
<path fill="none" stroke-width="12" stroke-linecap="square" stroke-linejoin="round" stroke="rgb(14.892578%, 14.892578%, 14.892578%)" stroke-opacity="1" stroke-miterlimit="10" d="M 547.5 2141.25 L 514.960938 2141.25 " transform="matrix(0.1, 0, 0, -0.1, 0, 315)"/>
<path fill="none" stroke-width="12" stroke-linecap="square" stroke-linejoin="round" stroke="rgb(14.892578%, 14.892578%, 14.892578%)" stroke-opacity="1" stroke-miterlimit="10" d="M 547.5 2313.75 L 514.960938 2313.75 " transform="matrix(0.1, 0, 0, -0.1, 0, 315)"/>
<path fill="none" stroke-width="12" stroke-linecap="square" stroke-linejoin="round" stroke="rgb(14.892578%, 14.892578%, 14.892578%)" stroke-opacity="1" stroke-miterlimit="10" d="M 547.5 2400 L 514.960938 2400 " transform="matrix(0.1, 0, 0, -0.1, 0, 315)"/>
<path fill="none" stroke-width="12" stroke-linecap="square" stroke-linejoin="round" stroke="rgb(14.892578%, 14.892578%, 14.892578%)" stroke-opacity="1" stroke-miterlimit="10" d="M 547.5 2486.25 L 514.960938 2486.25 " transform="matrix(0.1, 0, 0, -0.1, 0, 315)"/>
<path fill="none" stroke-width="12" stroke-linecap="square" stroke-linejoin="round" stroke="rgb(14.892578%, 14.892578%, 14.892578%)" stroke-opacity="1" stroke-miterlimit="10" d="M 547.5 2658.75 L 514.960938 2658.75 " transform="matrix(0.1, 0, 0, -0.1, 0, 315)"/>
<path fill="none" stroke-width="12" stroke-linecap="square" stroke-linejoin="round" stroke="rgb(14.892578%, 14.892578%, 14.892578%)" stroke-opacity="1" stroke-miterlimit="10" d="M 547.5 2745 L 514.960938 2745 " transform="matrix(0.1, 0, 0, -0.1, 0, 315)"/>
<path fill="none" stroke-width="12" stroke-linecap="square" stroke-linejoin="round" stroke="rgb(14.892578%, 14.892578%, 14.892578%)" stroke-opacity="1" stroke-miterlimit="10" d="M 547.5 2831.25 L 514.960938 2831.25 " transform="matrix(0.1, 0, 0, -0.1, 0, 315)"/>
<path fill-rule="nonzero" fill="rgb(14.892578%, 14.892578%, 14.892578%)" fill-opacity="1" d="M 39.488281 268.675781 C 38.265625 268.675781 37.429688 268.171875 36.988281 267.167969 C 36.546875 266.160156 36.324219 264.960938 36.324219 263.570312 C 36.324219 262.703125 36.40625 261.882812 36.566406 261.113281 C 36.726562 260.34375 37.039062 259.691406 37.507812 259.15625 C 37.976562 258.621094 38.640625 258.355469 39.488281 258.355469 C 40.144531 258.355469 40.683594 258.515625 41.105469 258.839844 C 41.527344 259.164062 41.847656 259.582031 42.066406 260.09375 C 42.285156 260.605469 42.4375 261.152344 42.519531 261.734375 C 42.601562 262.316406 42.640625 262.929688 42.640625 263.570312 C 42.640625 264.429688 42.5625 265.234375 42.402344 265.984375 C 42.242188 266.734375 41.929688 267.371094 41.464844 267.894531 C 41 268.417969 40.339844 268.675781 39.488281 268.675781 Z M 39.488281 268.292969 C 40.042969 268.292969 40.457031 268.007812 40.730469 267.4375 C 41.003906 266.867188 41.175781 266.234375 41.242188 265.539062 C 41.308594 264.84375 41.34375 264.105469 41.34375 263.324219 C 41.34375 262.574219 41.308594 261.878906 41.242188 261.242188 C 41.175781 260.605469 41.007812 260.03125 40.738281 259.519531 C 40.46875 259.007812 40.050781 258.753906 39.488281 258.753906 C 38.925781 258.753906 38.507812 259.011719 38.234375 259.527344 C 37.960938 260.042969 37.792969 260.617188 37.726562 261.25 C 37.660156 261.882812 37.628906 262.574219 37.628906 263.324219 C 37.628906 263.878906 37.640625 264.402344 37.667969 264.898438 C 37.695312 265.394531 37.765625 265.90625 37.882812 266.425781 C 38 266.953125 38.191406 267.394531 38.453125 267.753906 C 38.714844 268.113281 39.058594 268.292969 39.488281 268.292969 "/>
<path fill-rule="nonzero" fill="rgb(14.892578%, 14.892578%, 14.892578%)" fill-opacity="1" d="M 27.824219 234.175781 C 26.597656 234.175781 25.761719 233.671875 25.320312 232.667969 C 24.878906 231.660156 24.660156 230.460938 24.660156 229.070312 C 24.660156 228.203125 24.738281 227.382812 24.898438 226.613281 C 25.058594 225.84375 25.375 225.191406 25.84375 224.65625 C 26.3125 224.121094 26.972656 223.855469 27.824219 223.855469 C 28.480469 223.855469 29.019531 224.015625 29.441406 224.339844 C 29.863281 224.664062 30.183594 225.082031 30.402344 225.59375 C 30.621094 226.105469 30.769531 226.652344 30.851562 227.234375 C 30.933594 227.816406 30.976562 228.429688 30.976562 229.070312 C 30.976562 229.929688 30.894531 230.734375 30.734375 231.484375 C 30.574219 232.234375 30.261719 232.871094 29.796875 233.394531 C 29.332031 233.917969 28.675781 234.175781 27.824219 234.175781 Z M 27.824219 233.792969 C 28.378906 233.792969 28.792969 233.507812 29.066406 232.9375 C 29.339844 232.367188 29.507812 231.734375 29.574219 231.039062 C 29.640625 230.34375 29.675781 229.605469 29.675781 228.824219 C 29.675781 228.074219 29.640625 227.378906 29.574219 226.742188 C 29.507812 226.105469 29.339844 225.53125 29.070312 225.019531 C 28.800781 224.507812 28.386719 224.253906 27.824219 224.253906 C 27.261719 224.253906 26.84375 224.511719 26.570312 225.027344 C 26.296875 225.542969 26.125 226.117188 26.058594 226.75 C 25.992188 227.382812 25.960938 228.074219 25.960938 228.824219 C 25.960938 229.378906 25.972656 229.902344 26 230.398438 C 26.027344 230.894531 26.101562 231.40625 26.21875 231.925781 C 26.335938 232.453125 26.523438 232.894531 26.785156 233.253906 C 27.046875 233.613281 27.394531 233.792969 27.824219 233.792969 "/>
<path fill-rule="nonzero" fill="rgb(14.892578%, 14.892578%, 14.892578%)" fill-opacity="1" d="M 32.839844 233.019531 C 32.839844 232.800781 32.921875 232.609375 33.085938 232.445312 C 33.25 232.28125 33.441406 232.199219 33.660156 232.199219 C 33.800781 232.199219 33.933594 232.234375 34.0625 232.308594 C 34.191406 232.382812 34.292969 232.488281 34.367188 232.617188 C 34.441406 232.753906 34.480469 232.886719 34.480469 233.019531 C 34.480469 233.238281 34.398438 233.429688 34.238281 233.597656 C 34.078125 233.765625 33.886719 233.851562 33.660156 233.851562 C 33.441406 233.851562 33.25 233.765625 33.085938 233.597656 C 32.921875 233.429688 32.839844 233.238281 32.839844 233.019531 "/>
<path fill-rule="nonzero" fill="rgb(14.892578%, 14.892578%, 14.892578%)" fill-opacity="1" d="M 36.488281 233.851562 L 36.488281 233.453125 C 36.488281 233.421875 36.496094 233.394531 36.511719 233.367188 L 38.84375 230.792969 C 39.199219 230.410156 39.480469 230.089844 39.699219 229.832031 C 39.917969 229.574219 40.136719 229.273438 40.351562 228.933594 C 40.566406 228.59375 40.734375 228.25 40.859375 227.902344 C 40.984375 227.554688 41.046875 227.1875 41.046875 226.796875 C 41.046875 226.390625 40.972656 226 40.820312 225.625 C 40.667969 225.25 40.445312 224.949219 40.144531 224.722656 C 39.847656 224.496094 39.484375 224.382812 39.054688 224.382812 C 38.625 224.382812 38.238281 224.511719 37.890625 224.773438 C 37.542969 225.035156 37.296875 225.375 37.15625 225.789062 C 37.199219 225.78125 37.246094 225.777344 37.308594 225.777344 C 37.535156 225.777344 37.730469 225.851562 37.890625 226.003906 C 38.050781 226.15625 38.128906 226.355469 38.128906 226.597656 C 38.128906 226.824219 38.050781 227.015625 37.890625 227.175781 C 37.730469 227.335938 37.535156 227.417969 37.308594 227.417969 C 37.078125 227.417969 36.878906 227.335938 36.722656 227.171875 C 36.566406 227.007812 36.488281 226.816406 36.488281 226.597656 C 36.488281 226.214844 36.558594 225.855469 36.699219 225.53125 C 36.839844 225.203125 37.042969 224.910156 37.308594 224.652344 C 37.578125 224.394531 37.875 224.195312 38.214844 224.058594 C 38.546875 223.921875 38.90625 223.855469 39.28125 223.855469 C 39.847656 223.855469 40.378906 223.976562 40.871094 224.21875 C 41.363281 224.460938 41.753906 224.800781 42.042969 225.242188 C 42.332031 225.683594 42.476562 226.203125 42.476562 226.796875 C 42.476562 227.234375 42.382812 227.648438 42.191406 228.039062 C 42 228.429688 41.757812 228.785156 41.457031 229.105469 C 41.160156 229.421875 40.78125 229.785156 40.316406 230.1875 C 39.851562 230.589844 39.546875 230.863281 39.40625 231.003906 L 37.707031 232.632812 L 39.152344 232.632812 C 39.851562 232.632812 40.441406 232.625 40.917969 232.613281 C 41.394531 232.601562 41.648438 232.585938 41.679688 232.5625 C 41.796875 232.4375 41.917969 231.972656 42.042969 231.175781 L 42.476562 231.175781 L 42.054688 233.851562 L 36.488281 233.851562 "/>
<path fill-rule="nonzero" fill="rgb(14.892578%, 14.892578%, 14.892578%)" fill-opacity="1" d="M 27.824219 199.679688 C 26.597656 199.679688 25.761719 199.175781 25.320312 198.164062 C 24.878906 197.160156 24.660156 195.960938 24.660156 194.570312 C 24.660156 193.703125 24.738281 192.882812 24.898438 192.113281 C 25.058594 191.34375 25.375 190.691406 25.84375 190.15625 C 26.3125 189.621094 26.972656 189.355469 27.824219 189.355469 C 28.480469 189.355469 29.019531 189.515625 29.441406 189.839844 C 29.863281 190.164062 30.183594 190.582031 30.402344 191.09375 C 30.621094 191.605469 30.769531 192.152344 30.851562 192.734375 C 30.933594 193.316406 30.976562 193.929688 30.976562 194.570312 C 30.976562 195.429688 30.894531 196.234375 30.734375 196.984375 C 30.574219 197.734375 30.261719 198.371094 29.796875 198.894531 C 29.332031 199.414062 28.675781 199.679688 27.824219 199.679688 Z M 27.824219 199.289062 C 28.378906 199.289062 28.792969 199.007812 29.066406 198.4375 C 29.339844 197.867188 29.507812 197.234375 29.574219 196.535156 C 29.640625 195.84375 29.675781 195.105469 29.675781 194.324219 C 29.675781 193.574219 29.640625 192.878906 29.574219 192.242188 C 29.507812 191.605469 29.339844 191.03125 29.070312 190.519531 C 28.800781 190.007812 28.386719 189.753906 27.824219 189.753906 C 27.261719 189.753906 26.84375 190.011719 26.570312 190.523438 C 26.296875 191.039062 26.125 191.617188 26.058594 192.246094 C 25.992188 192.882812 25.960938 193.574219 25.960938 194.324219 C 25.960938 194.878906 25.972656 195.402344 26 195.898438 C 26.027344 196.394531 26.101562 196.90625 26.21875 197.429688 C 26.335938 197.949219 26.523438 198.394531 26.785156 198.753906 C 27.046875 199.113281 27.394531 199.289062 27.824219 199.289062 "/>
<path fill-rule="nonzero" fill="rgb(14.892578%, 14.892578%, 14.892578%)" fill-opacity="1" d="M 32.839844 198.519531 C 32.839844 198.300781 32.921875 198.109375 33.085938 197.945312 C 33.25 197.78125 33.441406 197.699219 33.660156 197.699219 C 33.800781 197.699219 33.933594 197.734375 34.0625 197.808594 C 34.191406 197.882812 34.292969 197.988281 34.367188 198.117188 C 34.441406 198.253906 34.480469 198.386719 34.480469 198.519531 C 34.480469 198.738281 34.398438 198.929688 34.238281 199.097656 C 34.078125 199.265625 33.886719 199.351562 33.660156 199.351562 C 33.441406 199.351562 33.25 199.265625 33.085938 199.097656 C 32.921875 198.929688 32.839844 198.738281 32.839844 198.519531 "/>
<path fill-rule="nonzero" fill="rgb(14.892578%, 14.892578%, 14.892578%)" fill-opacity="1" d="M 36.160156 196.878906 L 36.160156 196.351562 L 40.789062 189.4375 C 40.828125 189.382812 40.878906 189.355469 40.941406 189.355469 L 41.164062 189.355469 C 41.28125 189.355469 41.34375 189.410156 41.34375 189.53125 L 41.34375 196.351562 L 42.804688 196.351562 L 42.804688 196.878906 L 41.34375 196.878906 L 41.34375 198.34375 C 41.34375 198.554688 41.488281 198.6875 41.78125 198.738281 C 42.074219 198.796875 42.410156 198.824219 42.792969 198.824219 L 42.792969 199.351562 L 38.65625 199.351562 L 38.65625 198.824219 C 39.046875 198.824219 39.390625 198.796875 39.683594 198.738281 C 39.976562 198.6875 40.121094 198.554688 40.121094 198.34375 L 40.121094 196.878906 Z M 36.65625 196.351562 L 40.203125 196.351562 L 40.203125 191.039062 Z M 36.65625 196.351562 "/>
<path fill-rule="nonzero" fill="rgb(14.892578%, 14.892578%, 14.892578%)" fill-opacity="1" d="M 27.824219 165.179688 C 26.597656 165.179688 25.761719 164.675781 25.320312 163.664062 C 24.878906 162.660156 24.660156 161.460938 24.660156 160.070312 C 24.660156 159.203125 24.738281 158.382812 24.898438 157.613281 C 25.058594 156.84375 25.375 156.191406 25.84375 155.65625 C 26.3125 155.121094 26.972656 154.855469 27.824219 154.855469 C 28.480469 154.855469 29.019531 155.015625 29.441406 155.339844 C 29.863281 155.664062 30.183594 156.082031 30.402344 156.59375 C 30.621094 157.105469 30.769531 157.652344 30.851562 158.234375 C 30.933594 158.816406 30.976562 159.429688 30.976562 160.070312 C 30.976562 160.929688 30.894531 161.734375 30.734375 162.484375 C 30.574219 163.234375 30.261719 163.871094 29.796875 164.394531 C 29.332031 164.914062 28.675781 165.179688 27.824219 165.179688 Z M 27.824219 164.789062 C 28.378906 164.789062 28.792969 164.507812 29.066406 163.9375 C 29.339844 163.367188 29.507812 162.734375 29.574219 162.035156 C 29.640625 161.34375 29.675781 160.605469 29.675781 159.824219 C 29.675781 159.074219 29.640625 158.378906 29.574219 157.742188 C 29.507812 157.105469 29.339844 156.53125 29.070312 156.019531 C 28.800781 155.507812 28.386719 155.253906 27.824219 155.253906 C 27.261719 155.253906 26.84375 155.511719 26.570312 156.023438 C 26.296875 156.539062 26.125 157.117188 26.058594 157.746094 C 25.992188 158.382812 25.960938 159.074219 25.960938 159.824219 C 25.960938 160.378906 25.972656 160.902344 26 161.398438 C 26.027344 161.894531 26.101562 162.40625 26.21875 162.929688 C 26.335938 163.449219 26.523438 163.894531 26.785156 164.253906 C 27.046875 164.613281 27.394531 164.789062 27.824219 164.789062 "/>
<path fill-rule="nonzero" fill="rgb(14.892578%, 14.892578%, 14.892578%)" fill-opacity="1" d="M 32.839844 164.019531 C 32.839844 163.800781 32.921875 163.609375 33.085938 163.445312 C 33.25 163.28125 33.441406 163.199219 33.660156 163.199219 C 33.800781 163.199219 33.933594 163.234375 34.0625 163.308594 C 34.191406 163.382812 34.292969 163.488281 34.367188 163.617188 C 34.441406 163.753906 34.480469 163.886719 34.480469 164.019531 C 34.480469 164.238281 34.398438 164.429688 34.238281 164.597656 C 34.078125 164.765625 33.886719 164.851562 33.660156 164.851562 C 33.441406 164.851562 33.25 164.765625 33.085938 164.597656 C 32.921875 164.429688 32.839844 164.238281 32.839844 164.019531 "/>
<path fill-rule="nonzero" fill="rgb(14.892578%, 14.892578%, 14.892578%)" fill-opacity="1" d="M 39.488281 165.179688 C 38.871094 165.179688 38.355469 165.015625 37.9375 164.6875 C 37.519531 164.359375 37.199219 163.929688 36.96875 163.402344 C 36.742188 162.875 36.585938 162.324219 36.503906 161.75 C 36.414062 161.175781 36.371094 160.59375 36.371094 159.996094 C 36.371094 159.210938 36.527344 158.414062 36.835938 157.617188 C 37.144531 156.824219 37.597656 156.164062 38.195312 155.640625 C 38.792969 155.117188 39.5 154.855469 40.320312 154.855469 C 40.65625 154.855469 40.972656 154.921875 41.269531 155.054688 C 41.570312 155.1875 41.800781 155.378906 41.96875 155.628906 C 42.136719 155.878906 42.21875 156.183594 42.21875 156.539062 C 42.21875 156.746094 42.152344 156.914062 42.015625 157.050781 C 41.878906 157.1875 41.707031 157.257812 41.492188 157.257812 C 41.296875 157.257812 41.128906 157.1875 40.988281 157.046875 C 40.847656 156.902344 40.78125 156.734375 40.78125 156.539062 C 40.78125 156.347656 40.847656 156.175781 40.988281 156.03125 C 41.128906 155.886719 41.296875 155.816406 41.492188 155.816406 L 41.574219 155.816406 C 41.449219 155.636719 41.273438 155.503906 41.042969 155.414062 C 40.8125 155.328125 40.570312 155.285156 40.320312 155.285156 C 40.015625 155.285156 39.734375 155.355469 39.476562 155.488281 C 39.21875 155.621094 38.988281 155.800781 38.785156 156.023438 C 38.582031 156.253906 38.414062 156.5 38.277344 156.769531 C 38.140625 157.039062 38.03125 157.347656 37.953125 157.695312 C 37.875 158.042969 37.828125 158.367188 37.808594 158.667969 C 37.789062 158.96875 37.78125 159.351562 37.78125 159.8125 C 37.957031 159.398438 38.207031 159.0625 38.53125 158.804688 C 38.847656 158.546875 39.210938 158.414062 39.617188 158.414062 C 40.0625 158.414062 40.46875 158.507812 40.839844 158.6875 C 41.203125 158.867188 41.519531 159.117188 41.78125 159.4375 C 42.042969 159.757812 42.242188 160.121094 42.382812 160.53125 C 42.527344 160.941406 42.59375 161.355469 42.59375 161.769531 C 42.59375 162.355469 42.464844 162.910156 42.203125 163.445312 C 41.941406 163.976562 41.574219 164.394531 41.101562 164.710938 C 40.628906 165.019531 40.089844 165.179688 39.488281 165.179688 Z M 39.488281 164.699219 C 39.871094 164.699219 40.179688 164.609375 40.414062 164.433594 C 40.648438 164.257812 40.824219 164.027344 40.9375 163.738281 C 41.050781 163.449219 41.117188 163.15625 41.140625 162.859375 C 41.164062 162.5625 41.175781 162.199219 41.175781 161.769531 C 41.175781 161.207031 41.152344 160.722656 41.101562 160.320312 C 41.050781 159.917969 40.902344 159.566406 40.660156 159.261719 C 40.417969 158.953125 40.050781 158.804688 39.558594 158.804688 C 39.152344 158.804688 38.820312 158.9375 38.566406 159.214844 C 38.304688 159.484375 38.117188 159.832031 37.996094 160.25 C 37.875 160.667969 37.816406 161.074219 37.816406 161.464844 C 37.816406 161.589844 37.820312 161.6875 37.824219 161.757812 C 37.824219 161.773438 37.824219 161.785156 37.824219 161.796875 C 37.824219 161.808594 37.820312 161.820312 37.816406 161.828125 C 37.816406 162.257812 37.855469 162.691406 37.941406 163.132812 C 38.027344 163.574219 38.195312 163.945312 38.445312 164.246094 C 38.695312 164.546875 39.042969 164.699219 39.488281 164.699219 "/>
<path fill-rule="nonzero" fill="rgb(14.892578%, 14.892578%, 14.892578%)" fill-opacity="1" d="M 27.824219 130.679688 C 26.597656 130.679688 25.761719 130.175781 25.320312 129.164062 C 24.878906 128.160156 24.660156 126.960938 24.660156 125.570312 C 24.660156 124.703125 24.738281 123.882812 24.898438 123.113281 C 25.058594 122.34375 25.375 121.691406 25.84375 121.15625 C 26.3125 120.621094 26.972656 120.355469 27.824219 120.355469 C 28.480469 120.355469 29.019531 120.515625 29.441406 120.839844 C 29.863281 121.164062 30.183594 121.582031 30.402344 122.09375 C 30.621094 122.605469 30.769531 123.152344 30.851562 123.734375 C 30.933594 124.316406 30.976562 124.929688 30.976562 125.570312 C 30.976562 126.429688 30.894531 127.234375 30.734375 127.984375 C 30.574219 128.734375 30.261719 129.371094 29.796875 129.894531 C 29.332031 130.414062 28.675781 130.679688 27.824219 130.679688 Z M 27.824219 130.289062 C 28.378906 130.289062 28.792969 130.007812 29.066406 129.4375 C 29.339844 128.867188 29.507812 128.234375 29.574219 127.535156 C 29.640625 126.84375 29.675781 126.105469 29.675781 125.324219 C 29.675781 124.574219 29.640625 123.878906 29.574219 123.242188 C 29.507812 122.605469 29.339844 122.03125 29.070312 121.519531 C 28.800781 121.007812 28.386719 120.753906 27.824219 120.753906 C 27.261719 120.753906 26.84375 121.011719 26.570312 121.523438 C 26.296875 122.039062 26.125 122.617188 26.058594 123.246094 C 25.992188 123.882812 25.960938 124.574219 25.960938 125.324219 C 25.960938 125.878906 25.972656 126.402344 26 126.898438 C 26.027344 127.394531 26.101562 127.90625 26.21875 128.429688 C 26.335938 128.949219 26.523438 129.394531 26.785156 129.753906 C 27.046875 130.113281 27.394531 130.289062 27.824219 130.289062 "/>
<path fill-rule="nonzero" fill="rgb(14.892578%, 14.892578%, 14.892578%)" fill-opacity="1" d="M 32.839844 129.519531 C 32.839844 129.300781 32.921875 129.109375 33.085938 128.945312 C 33.25 128.78125 33.441406 128.699219 33.660156 128.699219 C 33.800781 128.699219 33.933594 128.734375 34.0625 128.808594 C 34.191406 128.882812 34.292969 128.988281 34.367188 129.117188 C 34.441406 129.253906 34.480469 129.386719 34.480469 129.519531 C 34.480469 129.738281 34.398438 129.929688 34.238281 130.097656 C 34.078125 130.265625 33.886719 130.351562 33.660156 130.351562 C 33.441406 130.351562 33.25 130.265625 33.085938 130.097656 C 32.921875 129.929688 32.839844 129.738281 32.839844 129.519531 "/>
<path fill-rule="nonzero" fill="rgb(14.892578%, 14.892578%, 14.892578%)" fill-opacity="1" d="M 36.371094 128.078125 C 36.371094 127.476562 36.570312 126.945312 36.964844 126.484375 C 37.359375 126.023438 37.863281 125.636719 38.480469 125.324219 L 37.929688 124.972656 C 37.585938 124.746094 37.308594 124.445312 37.09375 124.070312 C 36.878906 123.695312 36.769531 123.304688 36.769531 122.894531 C 36.769531 122.410156 36.898438 121.980469 37.152344 121.597656 C 37.40625 121.214844 37.738281 120.910156 38.15625 120.6875 C 38.570312 120.464844 39.015625 120.355469 39.488281 120.355469 C 39.933594 120.355469 40.363281 120.445312 40.78125 120.628906 C 41.195312 120.8125 41.53125 121.074219 41.796875 121.410156 C 42.0625 121.746094 42.195312 122.144531 42.195312 122.605469 C 42.195312 122.941406 42.117188 123.253906 41.957031 123.539062 C 41.796875 123.828125 41.578125 124.089844 41.300781 124.320312 C 41.023438 124.550781 40.726562 124.746094 40.414062 124.910156 L 41.28125 125.453125 C 41.671875 125.71875 41.988281 126.058594 42.230469 126.476562 C 42.472656 126.894531 42.59375 127.335938 42.59375 127.796875 C 42.59375 128.34375 42.453125 128.839844 42.160156 129.285156 C 41.871094 129.730469 41.488281 130.074219 41.007812 130.316406 C 40.527344 130.558594 40.019531 130.679688 39.488281 130.679688 C 38.972656 130.679688 38.476562 130.574219 37.996094 130.363281 C 37.515625 130.152344 37.125 129.847656 36.824219 129.449219 C 36.523438 129.050781 36.371094 128.59375 36.371094 128.078125 Z M 37.179688 128.078125 C 37.179688 128.46875 37.289062 128.828125 37.507812 129.15625 C 37.726562 129.480469 38.015625 129.738281 38.371094 129.921875 C 38.726562 130.105469 39.097656 130.199219 39.488281 130.199219 C 40.066406 130.199219 40.59375 130.03125 41.070312 129.695312 C 41.546875 129.359375 41.785156 128.910156 41.785156 128.347656 C 41.785156 128.148438 41.746094 127.960938 41.667969 127.769531 C 41.589844 127.585938 41.484375 127.414062 41.351562 127.261719 C 41.21875 127.109375 41.074219 126.984375 40.90625 126.882812 L 38.890625 125.582031 C 38.578125 125.746094 38.292969 125.953125 38.03125 126.207031 C 37.769531 126.460938 37.5625 126.746094 37.410156 127.070312 C 37.257812 127.390625 37.179688 127.726562 37.179688 128.078125 Z M 38.214844 123.492188 L 40.03125 124.664062 C 40.449219 124.425781 40.796875 124.128906 41.066406 123.78125 C 41.335938 123.433594 41.46875 123.039062 41.46875 122.605469 C 41.46875 122.269531 41.378906 121.960938 41.191406 121.679688 C 41.003906 121.398438 40.757812 121.179688 40.449219 121.019531 C 40.144531 120.867188 39.820312 120.785156 39.476562 120.785156 C 39.171875 120.785156 38.867188 120.847656 38.558594 120.964844 C 38.25 121.078125 37.996094 121.257812 37.796875 121.488281 C 37.597656 121.726562 37.496094 121.996094 37.496094 122.3125 C 37.496094 122.78125 37.734375 123.175781 38.214844 123.492188 "/>
<path fill-rule="nonzero" fill="rgb(14.892578%, 14.892578%, 14.892578%)" fill-opacity="1" d="M 37.132812 95.851562 L 37.132812 95.324219 C 38.382812 95.324219 39.007812 95.160156 39.007812 94.84375 L 39.007812 86.96875 C 38.492188 87.21875 37.835938 87.34375 37.039062 87.34375 L 37.039062 86.816406 C 38.265625 86.816406 39.191406 86.496094 39.816406 85.855469 L 40.03125 85.855469 C 40.070312 85.855469 40.101562 85.867188 40.132812 85.894531 C 40.164062 85.921875 40.179688 85.953125 40.179688 85.992188 L 40.179688 94.84375 C 40.179688 95.160156 40.804688 95.324219 42.054688 95.324219 L 42.054688 95.851562 L 37.132812 95.851562 "/>
<path fill-rule="nonzero" fill="rgb(14.892578%, 14.892578%, 14.892578%)" fill-opacity="1" d="M 25.46875 61.351562 L 25.46875 60.824219 C 26.71875 60.824219 27.34375 60.660156 27.34375 60.34375 L 27.34375 52.46875 C 26.828125 52.71875 26.171875 52.84375 25.375 52.84375 L 25.375 52.316406 C 26.601562 52.316406 27.527344 51.996094 28.152344 51.355469 L 28.363281 51.355469 C 28.402344 51.355469 28.4375 51.367188 28.46875 51.394531 C 28.5 51.421875 28.515625 51.453125 28.515625 51.492188 L 28.515625 60.34375 C 28.515625 60.660156 29.140625 60.824219 30.390625 60.824219 L 30.390625 61.351562 L 25.46875 61.351562 "/>
<path fill-rule="nonzero" fill="rgb(14.892578%, 14.892578%, 14.892578%)" fill-opacity="1" d="M 32.839844 60.519531 C 32.839844 60.300781 32.921875 60.109375 33.085938 59.945312 C 33.25 59.78125 33.441406 59.699219 33.660156 59.699219 C 33.800781 59.699219 33.933594 59.734375 34.0625 59.808594 C 34.191406 59.882812 34.292969 59.988281 34.367188 60.117188 C 34.441406 60.253906 34.480469 60.386719 34.480469 60.519531 C 34.480469 60.738281 34.398438 60.929688 34.238281 61.097656 C 34.078125 61.265625 33.886719 61.351562 33.660156 61.351562 C 33.441406 61.351562 33.25 61.265625 33.085938 61.097656 C 32.921875 60.929688 32.839844 60.738281 32.839844 60.519531 "/>
<path fill-rule="nonzero" fill="rgb(14.892578%, 14.892578%, 14.892578%)" fill-opacity="1" d="M 36.488281 61.351562 L 36.488281 60.953125 C 36.488281 60.921875 36.496094 60.894531 36.511719 60.867188 L 38.84375 58.289062 C 39.199219 57.910156 39.480469 57.589844 39.699219 57.332031 C 39.917969 57.074219 40.136719 56.773438 40.351562 56.433594 C 40.566406 56.09375 40.734375 55.75 40.859375 55.402344 C 40.984375 55.054688 41.046875 54.6875 41.046875 54.296875 C 41.046875 53.890625 40.972656 53.496094 40.820312 53.121094 C 40.667969 52.746094 40.445312 52.449219 40.144531 52.222656 C 39.847656 51.996094 39.484375 51.882812 39.054688 51.882812 C 38.625 51.882812 38.238281 52.011719 37.890625 52.273438 C 37.542969 52.535156 37.296875 52.871094 37.15625 53.285156 C 37.199219 53.277344 37.246094 53.273438 37.308594 53.273438 C 37.535156 53.273438 37.730469 53.351562 37.890625 53.503906 C 38.050781 53.65625 38.128906 53.855469 38.128906 54.097656 C 38.128906 54.324219 38.050781 54.515625 37.890625 54.675781 C 37.730469 54.835938 37.535156 54.914062 37.308594 54.914062 C 37.078125 54.914062 36.878906 54.835938 36.722656 54.671875 C 36.566406 54.507812 36.488281 54.316406 36.488281 54.097656 C 36.488281 53.714844 36.558594 53.355469 36.699219 53.027344 C 36.839844 52.703125 37.042969 52.410156 37.308594 52.148438 C 37.578125 51.894531 37.875 51.695312 38.214844 51.558594 C 38.546875 51.421875 38.90625 51.355469 39.28125 51.355469 C 39.847656 51.355469 40.378906 51.476562 40.871094 51.71875 C 41.363281 51.960938 41.753906 52.300781 42.042969 52.742188 C 42.332031 53.183594 42.476562 53.703125 42.476562 54.296875 C 42.476562 54.734375 42.382812 55.148438 42.191406 55.535156 C 42 55.929688 41.757812 56.285156 41.457031 56.605469 C 41.160156 56.925781 40.78125 57.285156 40.316406 57.6875 C 39.851562 58.089844 39.546875 58.363281 39.40625 58.503906 L 37.707031 60.132812 L 39.152344 60.132812 C 39.851562 60.132812 40.441406 60.125 40.917969 60.113281 C 41.394531 60.101562 41.648438 60.085938 41.679688 60.0625 C 41.796875 59.9375 41.917969 59.476562 42.042969 58.679688 L 42.476562 58.679688 L 42.054688 61.351562 L 36.488281 61.351562 "/>
<path fill-rule="nonzero" fill="rgb(14.892578%, 14.892578%, 14.892578%)" fill-opacity="1" d="M 25.46875 26.851562 L 25.46875 26.324219 C 26.71875 26.324219 27.34375 26.160156 27.34375 25.84375 L 27.34375 17.96875 C 26.828125 18.21875 26.171875 18.34375 25.375 18.34375 L 25.375 17.816406 C 26.601562 17.816406 27.527344 17.496094 28.152344 16.855469 L 28.363281 16.855469 C 28.402344 16.855469 28.4375 16.867188 28.46875 16.894531 C 28.5 16.921875 28.515625 16.953125 28.515625 16.992188 L 28.515625 25.84375 C 28.515625 26.160156 29.140625 26.324219 30.390625 26.324219 L 30.390625 26.851562 L 25.46875 26.851562 "/>
<path fill-rule="nonzero" fill="rgb(14.892578%, 14.892578%, 14.892578%)" fill-opacity="1" d="M 32.839844 26.019531 C 32.839844 25.800781 32.921875 25.609375 33.085938 25.445312 C 33.25 25.28125 33.441406 25.199219 33.660156 25.199219 C 33.800781 25.199219 33.933594 25.234375 34.0625 25.308594 C 34.191406 25.382812 34.292969 25.488281 34.367188 25.617188 C 34.441406 25.753906 34.480469 25.886719 34.480469 26.019531 C 34.480469 26.238281 34.398438 26.429688 34.238281 26.597656 C 34.078125 26.765625 33.886719 26.851562 33.660156 26.851562 C 33.441406 26.851562 33.25 26.765625 33.085938 26.597656 C 32.921875 26.429688 32.839844 26.238281 32.839844 26.019531 "/>
<path fill-rule="nonzero" fill="rgb(14.892578%, 14.892578%, 14.892578%)" fill-opacity="1" d="M 36.160156 24.378906 L 36.160156 23.851562 L 40.789062 16.9375 C 40.828125 16.882812 40.878906 16.855469 40.941406 16.855469 L 41.164062 16.855469 C 41.28125 16.855469 41.34375 16.910156 41.34375 17.027344 L 41.34375 23.851562 L 42.804688 23.851562 L 42.804688 24.378906 L 41.34375 24.378906 L 41.34375 25.84375 C 41.34375 26.054688 41.488281 26.1875 41.78125 26.238281 C 42.074219 26.296875 42.410156 26.324219 42.792969 26.324219 L 42.792969 26.851562 L 38.65625 26.851562 L 38.65625 26.324219 C 39.046875 26.324219 39.390625 26.296875 39.683594 26.238281 C 39.976562 26.1875 40.121094 26.054688 40.121094 25.84375 L 40.121094 24.378906 Z M 36.65625 23.851562 L 40.203125 23.851562 L 40.203125 18.539062 Z M 36.65625 23.851562 "/>
<path fill-rule="nonzero" fill="rgb(14.892578%, 14.892578%, 14.892578%)" fill-opacity="1" d="M 15.132812 181.742188 L 14.546875 181.742188 C 14.546875 180.757812 14.222656 180.152344 13.574219 179.925781 L 3.496094 176.457031 C 3.378906 176.425781 3.320312 176.339844 3.320312 176.199219 L 3.320312 175.988281 C 3.320312 175.839844 3.378906 175.753906 3.496094 175.71875 L 14.03125 172.097656 C 14.257812 171.996094 14.402344 171.804688 14.460938 171.519531 C 14.519531 171.234375 14.546875 170.878906 14.546875 170.445312 L 15.132812 170.445312 L 15.132812 175.039062 L 14.546875 175.039062 C 14.546875 174.125 14.402344 173.667969 14.113281 173.667969 L 14.03125 173.667969 L 11.453125 174.570312 L 11.453125 178.566406 L 13.574219 179.316406 C 13.613281 179.324219 13.671875 179.328125 13.75 179.328125 C 14.023438 179.328125 14.226562 179.199219 14.355469 178.9375 C 14.484375 178.675781 14.546875 178.394531 14.546875 178.097656 L 15.132812 178.097656 Z M 10.878906 178.378906 L 10.878906 174.757812 L 5.605469 176.574219 Z M 10.878906 178.378906 "/>
<path fill-rule="nonzero" fill="rgb(14.892578%, 14.892578%, 14.892578%)" fill-opacity="1" d="M 15.132812 169.402344 L 14.546875 169.402344 C 14.546875 169.027344 14.519531 168.71875 14.460938 168.476562 C 14.402344 168.234375 14.257812 168.113281 14.03125 168.113281 L 9.519531 168.113281 C 9.230469 168.113281 9.019531 168.160156 8.886719 168.25 C 8.753906 168.339844 8.671875 168.464844 8.640625 168.628906 C 8.609375 168.792969 8.59375 169.050781 8.59375 169.402344 L 8.019531 169.402344 L 7.84375 167.011719 L 9.449219 167.011719 C 8.980469 166.796875 8.597656 166.46875 8.296875 166.035156 C 7.996094 165.601562 7.84375 165.128906 7.84375 164.621094 C 7.84375 163.347656 8.359375 162.601562 9.390625 162.382812 C 8.929688 162.164062 8.558594 161.84375 8.269531 161.417969 C 7.988281 160.992188 7.84375 160.527344 7.84375 160.027344 C 7.84375 159.527344 7.925781 159.109375 8.082031 158.769531 C 8.246094 158.429688 8.492188 158.171875 8.824219 158 C 9.15625 157.828125 9.570312 157.742188 10.070312 157.742188 L 14.03125 157.742188 C 14.257812 157.742188 14.402344 157.621094 14.460938 157.375 C 14.519531 157.128906 14.546875 156.820312 14.546875 156.453125 L 15.132812 156.453125 L 15.132812 160.226562 L 14.546875 160.226562 C 14.546875 159.851562 14.519531 159.542969 14.460938 159.300781 C 14.402344 159.058594 14.257812 158.9375 14.03125 158.9375 L 10.117188 158.9375 C 9.5625 158.9375 9.117188 159.015625 8.773438 159.171875 C 8.4375 159.328125 8.265625 159.648438 8.265625 160.132812 C 8.265625 160.765625 8.523438 161.289062 9.035156 161.703125 C 9.546875 162.117188 10.125 162.324219 10.773438 162.324219 L 14.03125 162.324219 C 14.257812 162.324219 14.402344 162.203125 14.460938 161.960938 C 14.519531 161.71875 14.546875 161.410156 14.546875 161.035156 L 15.132812 161.035156 L 15.132812 164.808594 L 14.546875 164.808594 C 14.546875 164.433594 14.519531 164.128906 14.460938 163.882812 C 14.402344 163.640625 14.257812 163.519531 14.03125 163.519531 L 10.117188 163.519531 C 9.578125 163.519531 9.136719 163.597656 8.789062 163.753906 C 8.441406 163.910156 8.265625 164.230469 8.265625 164.714844 C 8.265625 165.355469 8.523438 165.882812 9.035156 166.292969 C 9.546875 166.703125 10.125 166.90625 10.773438 166.90625 L 14.03125 166.90625 C 14.257812 166.90625 14.402344 166.785156 14.460938 166.542969 C 14.519531 166.300781 14.546875 165.996094 14.546875 165.628906 L 15.132812 165.628906 L 15.132812 169.402344 "/>
<path fill-rule="nonzero" fill="rgb(14.892578%, 14.892578%, 14.892578%)" fill-opacity="1" d="M 18.332031 155.722656 L 17.757812 155.722656 C 17.757812 155.339844 17.726562 155.03125 17.664062 154.792969 C 17.601562 154.554688 17.457031 154.433594 17.230469 154.433594 L 9.273438 154.433594 C 8.976562 154.433594 8.789062 154.542969 8.710938 154.757812 C 8.632812 154.972656 8.59375 155.296875 8.59375 155.722656 L 8.019531 155.722656 L 7.84375 153.273438 L 8.863281 153.273438 C 8.527344 152.976562 8.273438 152.628906 8.101562 152.226562 C 7.929688 151.824219 7.84375 151.398438 7.84375 150.953125 C 7.84375 150.296875 8.019531 149.710938 8.371094 149.191406 C 8.722656 148.671875 9.183594 148.265625 9.753906 147.972656 C 10.324219 147.679688 10.929688 147.53125 11.570312 147.53125 C 12.234375 147.53125 12.855469 147.695312 13.425781 148.019531 C 14.003906 148.34375 14.460938 148.785156 14.804688 149.347656 C 15.148438 149.910156 15.320312 150.527344 15.320312 151.199219 C 15.320312 151.996094 14.996094 152.671875 14.347656 153.226562 L 17.230469 153.226562 C 17.457031 153.226562 17.601562 153.105469 17.664062 152.863281 C 17.726562 152.621094 17.757812 152.3125 17.757812 151.9375 L 18.332031 151.9375 Z M 13.527344 153.226562 C 13.917969 153.03125 14.242188 152.761719 14.5 152.421875 C 14.757812 152.074219 14.886719 151.699219 14.886719 151.296875 C 14.886719 150.910156 14.785156 150.574219 14.578125 150.28125 C 14.371094 149.988281 14.09375 149.742188 13.75 149.542969 C 13.40625 149.34375 13.046875 149.195312 12.667969 149.101562 C 12.289062 149.007812 11.921875 148.960938 11.570312 148.960938 C 11.132812 148.960938 10.65625 149.042969 10.140625 149.203125 C 9.625 149.363281 9.191406 149.605469 8.839844 149.929688 C 8.488281 150.253906 8.3125 150.644531 8.3125 151.105469 C 8.3125 151.550781 8.429688 151.960938 8.660156 152.335938 C 8.890625 152.710938 9.199219 153.007812 9.589844 153.226562 L 13.527344 153.226562 "/>
<path fill-rule="nonzero" fill="rgb(14.892578%, 14.892578%, 14.892578%)" fill-opacity="1" d="M 15.132812 146.476562 L 14.546875 146.476562 C 14.546875 146.101562 14.519531 145.789062 14.460938 145.550781 C 14.402344 145.308594 14.257812 145.1875 14.03125 145.1875 L 5.371094 145.1875 C 5.074219 145.1875 4.859375 145.230469 4.726562 145.3125 C 4.59375 145.402344 4.515625 145.527344 4.488281 145.695312 C 4.460938 145.863281 4.445312 146.121094 4.445312 146.476562 L 3.859375 146.476562 L 3.683594 144.027344 L 14.03125 144.027344 C 14.257812 144.027344 14.402344 143.90625 14.460938 143.660156 C 14.519531 143.421875 14.546875 143.113281 14.546875 142.738281 L 15.132812 142.738281 L 15.132812 146.476562 "/>
<path fill-rule="nonzero" fill="rgb(14.892578%, 14.892578%, 14.892578%)" fill-opacity="1" d="M 15.132812 141.890625 L 14.546875 141.890625 C 14.546875 141.515625 14.519531 141.207031 14.460938 140.964844 C 14.402344 140.722656 14.257812 140.601562 14.03125 140.601562 L 9.519531 140.601562 C 9.097656 140.601562 8.839844 140.683594 8.738281 140.847656 C 8.644531 141.011719 8.59375 141.332031 8.59375 141.808594 L 8.019531 141.808594 L 7.84375 139.441406 L 14.03125 139.441406 C 14.257812 139.441406 14.402344 139.335938 14.460938 139.128906 C 14.519531 138.914062 14.546875 138.632812 14.546875 138.28125 L 15.132812 138.28125 Z M 5.007812 141.1875 C 4.765625 141.1875 4.554688 141.097656 4.367188 140.914062 C 4.1875 140.730469 4.09375 140.519531 4.09375 140.285156 C 4.09375 140.128906 4.136719 139.980469 4.21875 139.835938 C 4.300781 139.691406 4.414062 139.578125 4.554688 139.496094 C 4.699219 139.414062 4.851562 139.371094 5.007812 139.371094 C 5.242188 139.371094 5.453125 139.464844 5.636719 139.648438 C 5.820312 139.832031 5.910156 140.042969 5.910156 140.285156 C 5.910156 140.519531 5.820312 140.730469 5.636719 140.914062 C 5.453125 141.097656 5.242188 141.1875 5.007812 141.1875 "/>
<path fill-rule="nonzero" fill="rgb(14.892578%, 14.892578%, 14.892578%)" fill-opacity="1" d="M 13.152344 136.125 L 8.59375 136.125 L 8.59375 137.496094 L 8.171875 137.496094 C 8.171875 136.777344 7.835938 136.246094 7.164062 135.90625 C 6.492188 135.566406 5.765625 135.398438 4.984375 135.398438 L 4.984375 134.929688 L 8.019531 134.929688 L 8.019531 132.597656 L 8.59375 132.597656 L 8.59375 134.929688 L 13.117188 134.929688 C 13.578125 134.929688 13.980469 134.855469 14.324219 134.703125 C 14.667969 134.550781 14.839844 134.273438 14.839844 133.875 C 14.839844 133.5 14.660156 133.230469 14.296875 133.0625 C 13.933594 132.894531 13.539062 132.808594 13.117188 132.808594 L 12.144531 132.808594 L 12.144531 132.328125 L 13.152344 132.328125 C 13.496094 132.328125 13.835938 132.390625 14.171875 132.519531 C 14.507812 132.648438 14.785156 132.835938 15 133.085938 C 15.214844 133.328125 15.320312 133.628906 15.320312 133.980469 C 15.320312 134.644531 15.125 135.167969 14.730469 135.550781 C 14.335938 135.933594 13.808594 136.125 13.152344 136.125 "/>
<path fill-rule="nonzero" fill="rgb(14.892578%, 14.892578%, 14.892578%)" fill-opacity="1" d="M 13.164062 129.613281 L 9.519531 129.613281 C 9.230469 129.613281 9.019531 129.660156 8.886719 129.75 C 8.753906 129.839844 8.671875 129.964844 8.640625 130.128906 C 8.609375 130.292969 8.59375 130.550781 8.59375 130.902344 L 8.019531 130.902344 L 7.84375 128.40625 L 13.164062 128.40625 C 13.59375 128.40625 13.929688 128.375 14.167969 128.3125 C 14.40625 128.25 14.585938 128.121094 14.707031 127.921875 C 14.828125 127.722656 14.886719 127.398438 14.886719 126.953125 C 14.886719 126.367188 14.640625 125.898438 14.144531 125.546875 C 13.648438 125.195312 13.085938 125.019531 12.460938 125.019531 L 9.519531 125.019531 C 9.230469 125.019531 9.019531 125.066406 8.886719 125.160156 C 8.753906 125.253906 8.671875 125.382812 8.640625 125.542969 C 8.609375 125.703125 8.59375 125.957031 8.59375 126.308594 L 8.019531 126.308594 L 7.84375 123.824219 L 13.632812 123.824219 C 13.921875 123.824219 14.132812 123.78125 14.265625 123.691406 C 14.398438 123.601562 14.480469 123.472656 14.507812 123.304688 C 14.535156 123.136719 14.546875 122.878906 14.546875 122.535156 L 15.132812 122.535156 L 15.320312 124.972656 L 13.925781 124.972656 C 14.339844 125.175781 14.675781 125.460938 14.933594 125.828125 C 15.191406 126.195312 15.320312 126.597656 15.320312 127.035156 C 15.320312 127.824219 15.152344 128.453125 14.816406 128.917969 C 14.480469 129.382812 13.929688 129.613281 13.164062 129.613281 "/>
<path fill-rule="nonzero" fill="rgb(14.892578%, 14.892578%, 14.892578%)" fill-opacity="1" d="M 15.320312 118.199219 C 15.320312 118.847656 15.144531 119.441406 14.792969 119.980469 C 14.441406 120.519531 13.980469 120.9375 13.40625 121.234375 C 12.832031 121.53125 12.21875 121.679688 11.570312 121.679688 C 10.90625 121.679688 10.289062 121.515625 9.710938 121.191406 C 9.140625 120.867188 8.683594 120.425781 8.347656 119.867188 C 8.011719 119.308594 7.84375 118.695312 7.84375 118.023438 C 7.84375 117.625 7.929688 117.242188 8.097656 116.878906 C 8.265625 116.515625 8.5 116.203125 8.804688 115.949219 L 5.371094 115.949219 C 5.074219 115.949219 4.859375 115.992188 4.726562 116.078125 C 4.59375 116.160156 4.515625 116.285156 4.488281 116.453125 C 4.460938 116.617188 4.445312 116.871094 4.445312 117.226562 L 3.859375 117.226562 L 3.683594 114.785156 L 13.632812 114.785156 C 13.921875 114.785156 14.132812 114.742188 14.265625 114.652344 C 14.398438 114.5625 14.480469 114.4375 14.507812 114.273438 C 14.535156 114.109375 14.546875 113.851562 14.546875 113.496094 L 15.132812 113.496094 L 15.320312 115.996094 L 14.277344 115.996094 C 14.605469 116.277344 14.863281 116.613281 15.046875 117.007812 C 15.230469 117.402344 15.320312 117.800781 15.320312 118.199219 Z M 13.703125 119.886719 C 14.0625 119.699219 14.347656 119.445312 14.566406 119.128906 C 14.78125 118.8125 14.886719 118.472656 14.886719 118.105469 C 14.886719 117.652344 14.753906 117.234375 14.488281 116.851562 C 14.222656 116.46875 13.882812 116.183594 13.46875 115.996094 L 9.507812 115.996094 C 9.265625 116.121094 9.050781 116.28125 8.859375 116.480469 C 8.667969 116.679688 8.519531 116.902344 8.417969 117.144531 C 8.316406 117.386719 8.265625 117.644531 8.265625 117.914062 C 8.265625 118.496094 8.429688 118.957031 8.753906 119.304688 C 9.078125 119.652344 9.492188 119.898438 10 120.035156 C 10.507812 120.179688 11.035156 120.246094 11.582031 120.246094 C 12.027344 120.246094 12.414062 120.226562 12.742188 120.179688 C 13.070312 120.132812 13.390625 120.035156 13.703125 119.886719 "/>
<path fill-rule="nonzero" fill="rgb(14.892578%, 14.892578%, 14.892578%)" fill-opacity="1" d="M 15.320312 108.949219 C 15.320312 109.621094 15.144531 110.238281 14.792969 110.800781 C 14.441406 111.363281 13.972656 111.804688 13.382812 112.125 C 12.792969 112.445312 12.167969 112.605469 11.511719 112.605469 C 10.871094 112.605469 10.261719 112.460938 9.675781 112.164062 C 9.09375 111.871094 8.625 111.464844 8.269531 110.941406 C 7.917969 110.417969 7.738281 109.832031 7.738281 109.183594 C 7.738281 108.683594 7.824219 108.246094 7.988281 107.871094 C 8.15625 107.496094 8.394531 107.1875 8.695312 106.945312 C 8.996094 106.703125 9.351562 106.519531 9.761719 106.398438 C 10.171875 106.277344 10.617188 106.21875 11.101562 106.21875 C 11.25 106.21875 11.324219 106.273438 11.324219 106.382812 L 11.324219 111.164062 L 11.5 111.164062 C 12.414062 111.164062 13.199219 110.980469 13.855469 110.613281 C 14.511719 110.246094 14.839844 109.644531 14.839844 108.808594 C 14.839844 108.472656 14.765625 108.160156 14.613281 107.871094 C 14.460938 107.582031 14.25 107.332031 13.980469 107.121094 C 13.710938 106.910156 13.421875 106.765625 13.117188 106.6875 C 13.078125 106.679688 13.046875 106.660156 13.019531 106.628906 C 12.992188 106.597656 12.976562 106.5625 12.976562 106.523438 L 12.976562 106.382812 C 12.976562 106.273438 13.046875 106.21875 13.1875 106.21875 C 13.804688 106.375 14.316406 106.710938 14.71875 107.226562 C 15.121094 107.742188 15.320312 108.316406 15.320312 108.949219 Z M 10.914062 111.140625 L 10.914062 107.378906 C 10.5 107.378906 10.082031 107.4375 9.65625 107.554688 C 9.230469 107.671875 8.875 107.863281 8.59375 108.136719 C 8.3125 108.402344 8.171875 108.753906 8.171875 109.183594 C 8.171875 109.808594 8.464844 110.289062 9.046875 110.632812 C 9.628906 110.96875 10.25 111.140625 10.914062 111.140625 "/>
<path fill="none" stroke-width="20.0025" stroke-linecap="butt" stroke-linejoin="round" stroke="rgb(0%, 44.700623%, 74.021912%)" stroke-opacity="1" stroke-miterlimit="10" d="M 547.5 2603.828125 L 569.179688 543.710938 L 590.898438 558.671875 L 612.617188 505.507812 L 634.296875 522.226562 L 656.015625 588.828125 L 677.695312 581.757812 L 699.414062 531.796875 L 721.09375 562.226562 L 742.8125 558.007812 L 764.492188 621.992188 L 786.210938 592.65625 L 807.890625 531.71875 L 829.609375 548.984375 L 851.289062 528.125 L 873.007812 530.234375 L 894.6875 557.8125 L 916.40625 535.117188 L 938.085938 574.882812 L 959.804688 547.8125 L 981.523438 544.882812 L 1003.203125 559.765625 L 1024.882812 589.726562 L 1046.601562 523.398438 L 1068.28125 555.3125 L 1090 576.523438 L 1111.71875 564.179688 L 1133.398438 551.328125 L 1155.117188 582.226562 L 1176.796875 562.109375 L 1198.515625 525.195312 L 1220.195312 598.867188 L 1241.914062 555.507812 L 1263.59375 510.78125 L 1285.3125 549.296875 L 1306.992188 611.953125 L 1328.710938 529.84375 L 1350.390625 588.476562 L 1372.109375 520.507812 L 1393.789062 532.109375 L 1415.507812 515.3125 L 1437.1875 546.25 L 1458.90625 532.773438 L 1480.585938 557.460938 L 1502.304688 601.679688 L 1523.984375 598.398438 L 1545.703125 540.820312 L 1567.382812 583.515625 L 1589.101562 568.671875 L 1610.78125 653.984375 L 1632.5 570.3125 L 1654.21875 518.710938 L 1675.898438 581.992188 L 1697.617188 550.117188 L 1719.296875 583.476562 L 1741.015625 555.15625 L 1762.695312 598.046875 L 1784.414062 553.710938 L 1806.09375 630.820312 L 1827.8125 516.71875 L 1849.492188 586.054688 L 1871.210938 547.539062 L 1892.890625 526.445312 L 1914.609375 596.875 L 1936.289062 559.570312 L 1958.007812 532.5 L 1979.6875 531.289062 L 2001.40625 535.117188 L 2023.085938 533.203125 L 2044.804688 544.140625 L 2066.484375 532.5 L 2088.203125 574.21875 L 2109.882812 627.265625 L 2131.601562 524.296875 L 2153.28125 643.945312 L 2175 546.523438 L 2196.71875 547.382812 L 2218.398438 561.40625 L 2240.117188 540.820312 L 2261.796875 576.015625 L 2283.515625 567.695312 L 2305.195312 533.554688 L 2326.914062 565.625 L 2348.59375 573.632812 L 2370.3125 603.398438 L 2391.992188 548.789062 L 2413.710938 514.335938 L 2435.390625 576.601562 L 2457.109375 591.992188 L 2478.789062 601.523438 L 2500.507812 570.078125 L 2522.1875 534.101562 L 2543.90625 556.953125 L 2565.585938 526.914062 L 2587.304688 555.46875 L 2608.984375 564.609375 L 2630.703125 538.085938 L 2652.382812 567.773438 L 2674.101562 508.398438 L 2695.78125 560.15625 L 2717.5 539.101562 L 2739.21875 572.929688 L 2760.898438 532.8125 L 2782.617188 518.984375 L 2804.296875 564.570312 L 2826.015625 579.921875 L 2847.695312 517.734375 L 2869.414062 555.3125 L 2891.09375 574.609375 L 2912.8125 537.8125 L 2934.492188 567.890625 L 2956.210938 558.867188 L 2977.890625 559.609375 L 2999.609375 520.742188 L 3021.289062 516.132812 L 3043.007812 550.46875 L 3064.6875 560.625 L 3086.40625 559.960938 L 3108.085938 577.34375 L 3129.804688 510.15625 L 3151.484375 549.6875 L 3173.203125 557.929688 L 3194.882812 580.195312 L 3216.601562 583.554688 L 3238.28125 541.09375 L 3260 564.921875 L 3281.71875 519.84375 L 3303.398438 545.46875 L 3325.117188 530.976562 L 3346.796875 589.335938 L 3368.515625 564.492188 L 3390.195312 529.53125 L 3411.914062 547.734375 L 3433.59375 518.476562 L 3455.3125 564.0625 L 3476.992188 535.351562 L 3498.710938 529.804688 L 3520.390625 544.179688 L 3542.109375 576.992188 L 3563.789062 558.90625 L 3585.507812 625.078125 L 3607.1875 538.59375 L 3628.90625 557.890625 L 3650.585938 531.289062 L 3672.304688 546.328125 L 3693.984375 538.28125 L 3715.703125 570.351562 L 3737.382812 642.96875 L 3759.101562 557.265625 L 3780.78125 524.648438 L 3802.5 518.867188 " transform="matrix(0.1, 0, 0, -0.1, 0, 315)"/>
</svg>
